<svg xmlns="http://www.w3.org/2000/svg" xmlns:xlink="http://www.w3.org/1999/xlink" width="1118" height="802.819"><style><![CDATA[.B{opacity:.1}.C{fill:#fbd56f}.D{fill:#31b8a2}.E{opacity:.25}.F{opacity:.2}.G{fill:#434175}.H{fill:#ee8e9e}.I{stroke-miterlimit:10}]]></style><defs><linearGradient id="A" x1="882.017" y1="830.637" x2="882.017" y2="326.597" gradientUnits="userSpaceOnUse"><stop offset="0" stop-color="gray" stop-opacity=".25"/><stop offset=".535" stop-color="gray" stop-opacity=".12"/><stop offset="1" stop-color="gray" stop-opacity=".1"/></linearGradient><path id="B" d="M1006.885 610.07c-2.056 5.152 1.312 23.814 1.312 23.814s15.3-11.218 17.345-16.37-.46-10.99-5.61-13.044-11 .452-13.048 5.6z"/><path id="C" d="M980.08 632.456c1.075 5.442 14.044 19.277 14.044 19.277s6.737-17.727 5.663-23.17-6.357-8.982-11.8-7.908-8.982 6.357-7.908 11.8z"/><path id="D" d="M961.294 681.492c3.675 4.155 21.855 9.55 21.855 9.55s-3.133-18.703-6.808-22.858c-2.377-2.69-6.008-3.905-9.525-3.19s-6.386 3.25-7.525 6.655-.376 7.156 2.002 9.844z"/><path id="E" d="M955.437 721.795c2.92 4.716 19.926 13.107 19.926 13.107s.073-18.964-2.847-23.68c-1.888-3.053-5.26-4.867-8.85-4.757s-6.845 2.126-8.543 5.288-1.58 6.99.312 10.042z"/><path id="F" d="M1013.312 660.546c-5.128 2.115-23.828-1.035-23.828-1.035s11.04-15.42 16.168-17.534 11 .327 13.115 5.454-.327 11-5.454 13.115z"/><path id="G" d="M1005.863 707.593c-5.526.484-22.427-8.117-22.427-8.117s15.148-11.41 20.673-11.894c3.577-.317 7.05 1.3 9.11 4.24s2.395 6.757.877 10.01-4.658 5.45-8.235 5.76z"/><path id="H" d="M992.35 752.327c-5.365 1.41-23.476-4.2-23.476-4.2s13.002-13.805 18.366-15.216 10.857 1.794 12.268 7.158-1.794 10.857-7.158 12.268z"/><path id="I" d="M564.257 700.744l-3.907-2.175s-1.827 7.625-1.23 13.06c.12 1.13.933 2.063 2.034 2.338 8.987 2.232 51.82 11.74 81.275-1.652.87-.397 1.464-1.222 1.565-2.172.36-3.34-.918-10.23-1.428-11.573-1.1-2.9-78.3 2.175-78.3 2.175z"/><path id="J" d="M740.568 411.87l-12.598 7.6s-3.6 12.198-6.4 13.798c0 0 25.197-13.998 44.194 18.198 0 0-.6-4.2 2-6.2s2-10.6 2-10.6a34.63 34.63 0 0 0 1.8-4.199c1.8-4.4-7.6-29.596-30.996-18.598z"/><path id="K" d="M509.62 684.344c2.066 2.83 3.756 5.915 5.027 9.18a50.48 50.48 0 0 1 .976 2.662c4.997 14.935-2.92 32.845-5.185 30.913s-9.318-5.516-10.682-.48-6.403 10.185-6.403 10.185c-9.18 9.233-17.5-.743-22.944-11.05-1.782-3.4-3.367-6.902-4.745-10.485-1.21-3.166-1.907-5.353-1.907-5.353l38.237-32.58s3.697 1.697 7.626 7.006z"/><path id="L" d="M449.357 705.176c2.066 2.83 3.756 5.915 5.027 9.18a50.5 50.5 0 0 1 .976 2.662c4.997 14.935-2.92 32.845-5.185 30.913s-9.318-5.516-10.682-.48-6.403 10.185-6.403 10.185c-9.18 9.233-17.5-.743-22.944-11.05a99.85 99.85 0 0 1-4.745-10.485c-1.21-3.166-1.907-5.353-1.907-5.353l38.237-32.58s3.696 1.697 7.626 7.006z"/><path id="M" d="M328.354 733.956c-.215 3.497-.883 6.952-1.988 10.276-.28.864-.593 1.757-.947 2.672-5.684 14.688-23.2 23.422-23.72 20.5s-3.653-10.194-7.918-7.186-11.43 3.755-11.43 3.755c-12.96 1.25-12.99-11.734-10.612-23.15.798-3.756 1.813-7.462 3.038-11.1 1.088-3.2 1.95-5.338 1.95-5.338l50.23-.68s1.763 3.666 1.4 10.26z"/><path id="N" d="M263.455 717.588c-.215 3.497-.883 6.952-1.988 10.276a50.45 50.45 0 0 1-.947 2.672c-5.684 14.688-23.2 23.422-23.72 20.5s-3.653-10.194-7.918-7.186-11.43 3.755-11.43 3.755c-12.96 1.25-12.99-11.734-10.612-23.15a99.85 99.85 0 0 1 3.038-11.101c1.088-3.2 1.95-5.338 1.95-5.338l50.23-.68s1.763 3.666 1.4 10.26z"/><path id="O" d="M657 559.206C657 631.32 605.252 688.3 556.56 688.3s-75.888-56.97-75.888-129.084 39.554-127.754 88.164-130.572C645.84 424.17 657 487.093 657 559.206z"/></defs><ellipse cx="559" cy="734.874" rx="559" ry="67.946" class="B D"/><path d="M956.486 768.178s29.155-37.1 26.797-73.906a71.49 71.49 0 0 1 11.25-43.799 120.23 120.23 0 0 1 13.699-17.199" fill="none" stroke="#535461" stroke-width="2" class="I"/><g class="D"><use xlink:href="#B"/><use xlink:href="#C"/><use xlink:href="#D"/><use xlink:href="#E"/><use xlink:href="#F"/><use xlink:href="#G"/><use xlink:href="#H"/></g><use xlink:href="#B" class="E"/><use xlink:href="#C" class="E"/><use xlink:href="#D" class="E"/><use xlink:href="#E" class="E"/><use xlink:href="#F" class="E"/><use xlink:href="#G" class="E"/><use xlink:href="#H" class="E"/><path d="M956.733 766.634s41.687-22.102 54.447-56.708a71.49 71.49 0 0 1 28.034-35.483c6.173-3.98 12.698-7.384 19.493-10.173" fill="none" stroke="#535461" stroke-width="2" class="I"/><g class="D"><path d="M1066.878 642.5c-3.967 3.877-8.45 22.303-8.45 22.303s18.524-4.06 22.5-7.937 4.04-10.236.163-14.203-10.236-4.04-14.203-.163zm-33.578 9.604c-1.223 5.4 5.028 23.315 5.028 23.315s13.343-13.476 14.565-18.886-2.172-10.788-7.583-12-10.788 2.172-12 7.583zm-37.044 37.218c1.676 5.288 16.1 17.588 16.1 17.588s4.715-18.368 3.04-23.656-7.32-8.216-12.6-6.54-8.216 7.32-6.54 12.6zm-21.686 34.472c.758 5.495 12.906 20.057 12.906 20.057s7.75-17.307 6.993-22.802-5.827-9.335-11.322-8.577-9.335 5.827-8.577 11.322zm77.73-32.544c-5.545-.144-21.365-10.602-21.365-10.602s16.34-9.623 21.886-9.48 9.924 4.756 9.78 10.3-4.756 9.924-10.3 9.78zm-25.875 39.994c-5.248-1.797-17.214-16.5-17.214-16.5s18.472-4.293 23.72-2.496 8.046 7.507 6.25 12.755-7.507 8.046-12.755 6.25zm-30.482 35.42c-5.476-.884-19.756-13.362-19.756-13.362s17.48-7.352 22.957-6.47 9.2 6.04 8.315 11.516-6.04 9.2-11.516 8.315z"/><path d="M637.14 95.078c-55.237-1.918-107.847-19.75-158.083-39.26S379.06 14.693 325.144 4.355c-34.677-6.65-74.332-7.6-102.273 11.002-26.887 17.89-35.575 48.775-40.246 77.43-3.514 21.56-5.58 44.25 4.05 64.435 6.685 14.013 18.555 25.792 26.764 39.214 28.562 46.704 8.374 104.296-22.58 149.898-14.52 21.39-31.36 41.8-42.565 64.57S131.906 459.77 141.71 483c9.716 23.024 32.87 40.318 57.953 52.482 50.942 24.705 110.972 31.775 169.5 35.78 129.58 8.865 259.85 5.027 389.773 1.183 48.082-1.423 96.375-2.864 143.675-10.3 26.267-4.13 53.385-10.682 72.455-26.5 24.208-20.083 30.21-54.09 13.987-79.27-27.2-42.24-102.44-52.73-121.46-98.06-10.468-24.952.282-52.745 15.495-75.886 32.635-49.642 87.337-93.193 90.218-149.935 1.98-38.97-24.317-78-64.977-96.438-42.62-19.328-101.717-16.896-133.16 15.097-32.376 32.944-89.27 45.62-138.042 43.927z" class="B"/></g><ellipse cx="542.563" cy="664.533" rx="37.557" ry="39.865" class="C"/><ellipse cx="542.563" cy="664.533" rx="37.557" ry="39.865" class="B"/><g class="C"><ellipse cx="549.045" cy="665.421" rx="37.557" ry="38.978"/><use xlink:href="#I"/></g><use xlink:href="#I" class="B"/><g class="C"><ellipse cx="601.458" cy="698.569" rx="41.108" ry="9.266"/><use xlink:href="#I" x="15.705" y="-13.672"/></g><use xlink:href="#I" x="15.705" y="-13.672" class="B"/><g class="C"><ellipse cx="617.164" cy="684.897" rx="41.108" ry="9.266"/><use xlink:href="#I" x="29.59" y="-31.641"/></g><use xlink:href="#I" x="29.59" y="-31.641" class="B"/><g class="C"><ellipse cx="631.049" cy="666.928" rx="41.108" ry="9.266"/><use xlink:href="#I" x="14.213" y="-50.346"/></g><use xlink:href="#I" x="14.213" y="-50.346" class="B"/><g class="C"><ellipse cx="615.672" cy="648.223" rx="41.108" ry="9.266"/><use xlink:href="#I" x="48.805" y="-65.357"/></g><use xlink:href="#I" x="48.805" y="-65.357" class="B"/><g class="C"><ellipse cx="650.263" cy="633.211" rx="41.108" ry="9.266"/><use xlink:href="#I" x="25.443" y="-75.447"/></g><use xlink:href="#I" x="25.443" y="-75.447" class="B"/><g class="C"><ellipse cx="626.892" cy="623.122" rx="41.108" ry="9.266"/><use xlink:href="#I" x="41.037" y="-94.924"/></g><use xlink:href="#I" x="41.037" y="-94.924" class="B"/><g class="C"><ellipse cx="642.496" cy="603.644" rx="41.108" ry="9.266"/><use xlink:href="#I" x="48.733" y="-118.044"/></g><use xlink:href="#I" x="48.733" y="-118.044" class="B"/><g class="C"><ellipse cx="650.193" cy="580.524" rx="41.108" ry="9.266"/><use xlink:href="#I" x="118.129" y="5.362"/></g><use xlink:href="#I" x="118.129" y="5.362" class="B"/><g class="C"><ellipse cx="719.587" cy="703.931" rx="41.108" ry="9.266"/><use xlink:href="#I" x="132.013" y="-12.607"/></g><use xlink:href="#I" x="132.013" y="-12.607" class="B"/><g class="C"><ellipse cx="733.472" cy="685.962" rx="41.108" ry="9.266"/><use xlink:href="#I" x="116.637" y="-31.312"/></g><use xlink:href="#I" x="116.637" y="-31.312" class="B"/><g class="C"><ellipse cx="718.096" cy="667.257" rx="41.108" ry="9.266"/><use xlink:href="#I" x="151.228" y="-46.324"/></g><use xlink:href="#I" x="151.228" y="-46.324" class="B"/><g class="C"><ellipse cx="752.687" cy="652.245" rx="41.108" ry="9.266"/><use xlink:href="#I" x="127.857" y="-56.414"/></g><use xlink:href="#I" x="127.857" y="-56.414" class="B"/><g class="C"><ellipse cx="729.315" cy="642.156" rx="41.108" ry="9.266"/><use xlink:href="#I" x="143.46" y="-75.891"/></g><use xlink:href="#I" x="143.46" y="-75.891" class="B"/><g class="C"><ellipse cx="744.919" cy="622.678" rx="41.108" ry="9.266"/><use xlink:href="#I" x="151.157" y="-99.011"/></g><use xlink:href="#I" x="151.157" y="-99.011" class="B"/><ellipse cx="752.616" cy="599.558" rx="41.108" ry="9.266" class="C"/><path d="M1004.19 809.234c-5.722-.202-5.927-2.42-13.284-6.25-4.153-2.162-10.46-8.442-15.16-13.495q-.565-.607-1.094-1.186l1.948-.04s-1.84-16.133-.204-19.964.41-26.62.41-26.62 1.022-17.343-.818-21.376.613-29.846.613-29.846 1.635-15.326 2.044-46.584-17.984-32.266-17.984-32.266l-6.176-.544-1.116-.107c2.41-5.048 3.817-8.826 3.817-8.826l-3.883-34.282c-.817-5.04-5.722-25.813-5.722-25.813s-3.474-8.873-5.518-15.125-8.175-13.51-8.175-13.51-11.036-21.78-14.1-25.006c-1.422-1.496-3.417-3.384-5.146-4.977l-.9-.824a36.52 36.52 0 0 0 .732-6.903c0 0-11.444-11.293-12.262-14.116s-11.65-13.3-11.65-13.3-6.13-11.293-13.08-11.495a56.68 56.68 0 0 0-9.842.298c1.427-5.282 3.115-10.815 4.63-15.564l.498-1.553c5.553-3.755 9.9-9.025 12.554-15.185.145-.328.276-.658.407-.99.074.002.147.014.22.013.288-.003.576-.03.86-.078 2.287-.393 4.224-2.976 3.17-5.015.14.234.394.375.666.366.762-.025 1.693-1.128 1.87-2.1.03-.168.048-.34.074-.508l.092-.632c.023-.2.038-.398.055-.598l.044-.618a17.55 17.55 0 0 0 .019-.579 18.25 18.25 0 0 0-.001-.666l-.014-.533c-.013-.27-.035-.54-.06-.81-.01-.11-.012-.222-.025-.332l-.002.016a18.11 18.11 0 0 0-.658-3.252c-1.13-3.748-3.5-7.466-2.586-11.27.01-.04.028-.078.04-.12l.001.007c.76-2.953 3.316-5.1 4.88-7.737.15-.252.28-.51.41-.772.024-.048.052-.093.075-.14.094-.196.174-.398.256-.598.053-.13.112-.256.16-.386.066-.176.12-.355.178-.533.053-.162.108-.324.154-.488.044-.158.08-.318.117-.478a12.93 12.93 0 0 0 .128-.579c.026-.14.047-.28.07-.42a13.43 13.43 0 0 0 .089-.663c.013-.12.022-.24.03-.36.02-.248.033-.495.04-.744l.004-.3q.001-.408-.02-.815l-.015-.245a14.45 14.45 0 0 0-.089-.867c-.005-.042-.007-.084-.013-.125l-.002.01a14.53 14.53 0 0 0-2.927-6.951 17.91 17.91 0 0 0-14.71-6.362c-1.536.173-3.084.202-4.625.085-2.566-.376-4.736-2.006-6.78-3.58q-8.56-6.593-17.118-13.186c-1.91-1.66-4.1-2.962-6.47-3.847-2.42-.74-5.32-.485-7.1 1.282-3.205 3.163-1.168 8.606-2.454 12.894-1.115 3.715-4.702 6.232-8.416 7.487s-7.688 1.53-11.505 2.438a6.35 6.35 0 0 0-3.079 1.415c-.988 1.2-1.468 2.738-1.338 4.287a23.12 23.12 0 0 0 2.657 10.905c.722 1.37 1.596 2.753 2.364 4.156l.187.348.254.484q.2.393.38.79c.052.114.098.228.148.342q.12.28.23.56l.132.36a11.39 11.39 0 0 1 .209.664 7.38 7.38 0 0 1 .111 4.021c-.59 2.168-2.28 3.838-3.773 5.53a10.76 10.76 0 0 0-2.522 4.674l-.007.04c-.083.406-.1.822-.046 1.233.007.05.013.103.024.152a2.16 2.16 0 0 0 .075.27 1.87 1.87 0 0 0 .08.188 1.74 1.74 0 0 0 .106.209 1.6 1.6 0 0 0 .26.307 1.69 1.69 0 0 0 .143.107 1.74 1.74 0 0 0 .262.161c.056.028.113.054.175.077a2.42 2.42 0 0 0 .419.114c.04.007.074.02.116.026a3.84 3.84 0 0 0 .658.028c.063-.002.132-.01.2-.015a6.24 6.24 0 0 0 .628-.079l.23-.042c.3-.062.617-.14.964-.247 1.148-.347 2.264-.788 3.34-1.32-.001.123-.01.244-.01.367a6.8 6.8 0 0 0 .02.645c.057 3.955.804 7.87 2.207 11.567 2.19 5.763 5.868 10.843 10.657 14.725q-.09.523-.195 1.05c-.985 4.836-3.045 9.688-4.316 9.313-1.244-.277-2.515-.417-3.79-.415l-1.115-.02-.001-.001a15.11 15.11 0 0 0-3.474 0c-.516.035-1.033-.036-1.52-.2a20.73 20.73 0 0 0-10.21-.573c-7.067 1.448-17.816 4.098-20.763 7.268-4.496 4.84-11.036 9.478-18.393 29.644 0 0-3.68 12.3-6.54 13.915a19.1 19.1 0 0 1 1.941-.873 5.18 5.18 0 0 1-1.533 1.679c1.037-.53 2.113-.98 3.22-1.342-2.233 13.14 1.073 50.722 1.073 50.722s-2.657 6.48.817 10.312c2.065 2.277 3.187 5.828 3.76 8.34q-.242.378-.503.782v.004c-1.84 2.85-4.3 6.57-5.914 8.62-2.86 3.63-2.044 15.125-2.044 15.125s-.613 5.445-2.657 7.46-1.635 9.478-1.635 9.478l-5.313 19.56s-4.905 4.437-4.905 6.453-3.883 7.663-3.883 7.663-5.927 9.68 0 8.268c2.16-.633 4.188-1.652 5.984-3.01l-.003.145q-.013.532-.022 1.08c-.168 10.543.98 25.377 8.755 25.377 12.058 0 43.12 14.318 43.12 14.318 6.335 4.84 14.92 3.227 14.92 3.227s-15.123 15.125-14.714 21.376-8.583 16.536-8.583 16.536l-27.794 54.247c.156 3.78.826 7.52 1.992 11.12l-.398.344c-10.68 9.756-11.608 29.07-11.608 29.07l-2.452 9.88 37.194 16.334s48.23 1.008 56.61-1.2 6.54-11.495-4.496-13.3-13.692-6.655-17.37-8.873c-2.48-1.496-11.293-11.168-16.762-17.298l-.24-.27 1.267-7.033c2.452-1.2 6.13-13.3 6.13-13.3s0-4.84 2.452-6.25 7.562-15.93 7.562-15.93 11.036-18.35 10.423-20.77 7.97-14.72 7.97-14.72 14.5-14.116 13.897-16.637 11.65-15.427 11.65-15.427c4.43-3.382 8.123-7.634 10.852-12.495l3.54-.577c16.047-2.63 42.712-7.385 45.692-8.708 4.087-1.815 3.27 6.25 1.635 13.108s-2.86 39.727-1.022 43.962 1.022 11.09 1.022 11.09l-2.452 36.904 1.635 7.865s-5.518 4.437-3.27 7.058.204 13.915.204 13.915a7.8 7.8 0 0 1 .679-.21c-.197.443-.384.898-.552 1.376-3.168 9.03-1.353 23.84-1.353 23.84V828.2l69.075 1.008c12.466 0 29.633-6.05 30.655-10.9s-14.306-8.873-20.028-9.075zM843.185 599.296l-3.71.312a30.79 30.79 0 0 1 3.709-.312zm22.608-154.788c.52-2.333 1.15-4.842 1.844-7.416zm6.993 160.444a15 15 0 0 1-11.011.012l-.025-.012s.204-14.116 1.84-19.964 3.883-16.536 3.883-16.536 1.84-14.72 3.678-21.376 8.992-43.76 12.67-46.18 5.722 1.815 5.722 1.815.55-.01 1.47-.113q.26.58.585 1.234c4.36 8.813 17.154 26.9 17.154 26.9 3.795 2.34 7.01 5.513 9.4 9.276 3.474 5.848 4.496 19.56 4.496 19.56s7.766 30.45 11.444 34.686c1.84 2.117 1.022 3.38-.253 4.1-2.606 1.426-4.82 3.472-6.45 5.957-.524.83-1.078 1.743-1.64 2.715-1.406-.326-2.665-.664-3.714-1.017-10.014-3.364-43.734-3.497-49.252-1.077z" transform="translate(-41 -48.59)" fill="url(#A)"/><path d="M882.148 768.022v11.598l67.59 1c12.198 0 28.996-6 29.996-10.8s-13.998-8.8-19.597-9-5.8-2.4-12.998-6.2c-4.063-2.144-10.235-8.37-14.834-13.382-3.547-3.867-6.163-7.015-6.163-7.015s-29.796-.6-38.395 4.2c-1.98 1.108-3.348 3.276-4.275 5.955-3.1 8.955-1.324 23.64-1.324 23.64z" class="G"/><path d="M883.472 744.38c6.247-2.172 42.822-3.016 48.833-3.14-3.547-3.867-6.163-7.015-6.163-7.015s-29.796-.6-38.395 4.2c-1.98 1.108-3.348 3.276-4.275 5.955z" class="B"/><path d="M722.77 559.45l9.143 5.515c25.133 15.146 93.69 56.204 97.443 55.876.984-.084 3.94-.528 8.02-1.192l3.463-.572c15.702-2.608 41.794-7.323 44.7-8.635 4-1.8 3.2 6.2 1.6 12.998s-2.8 39.395-1 43.594 1 11 1 11l-2.4 36.595 1.6 7.8s-5.4 4.4-3.2 7 .2 13.798.2 13.798c6.4-2.4 49.793-3.2 49.793-3.2s-1.8-15.998-.2-19.797.4-26.396.4-26.396 1-17.198-.8-21.197.6-29.596.6-29.596 1.6-15.198 2-46.194-17.598-31.996-17.598-31.996l-6.043-.54c-7.127-.684-19.005-1.992-26.94-3.715a44.9 44.9 0 0 1-4.811-1.276c-9.8-3.336-42.794-3.468-48.194-1.068a14.5 14.5 0 0 1-10.775.012l-.024-.012-4.2-6.8-86.564 7.383z" fill="#565387"/><path d="M883.548 590.126c11.65 5.68 22.77-14.454 27.952-25.817-7.127-.684-19.005-1.992-26.94-3.715-5.22 8.76-12.182 24.09-1.012 29.532z" class="B"/><path d="M848.553 454.064c.244 1.375.72 2.698 1.412 3.91 4.267 8.74 16.786 26.684 16.786 26.684a28.99 28.99 0 0 1 9.199 9.199c3.4 5.8 4.4 19.397 4.4 19.397s7.6 30.196 11.198 34.395c1.8 2.1 1 3.352-.248 4.075a17.81 17.81 0 0 0-6.311 5.907c-5.243 8.43-13.614 25.153-1.84 30.892 15.998 7.8 30.996-33.076 30.996-33.076l-3.8-33.995c-.8-5-5.6-25.597-5.6-25.597s-3.4-8.8-5.4-14.998-8-13.398-8-13.398-10.8-21.597-13.798-24.797c-1.392-1.484-3.344-3.356-5.035-4.935l-3.563-3.264s-20.597 14.798-20.397 19.597z" class="H"/><path d="M712.97 765.622l36.395 16.198s47.194 1 55.393-1.2 6.4-11.398-4.4-13.198-13.398-6.6-16.998-8.8c-2.428-1.484-11.05-11.075-16.402-17.154l-4.395-5.043s-7-18.597-26.396-14.398c-3.54.765-6.804 2.483-9.44 4.967-10.45 9.675-11.358 28.828-11.358 28.828z" class="G"/><path d="M727.213 562.134l4.7 2.832c25.133 15.146 93.7 56.204 97.443 55.876.984-.084 3.94-.528 8.02-1.192l3.463-.572a6.84 6.84 0 0 0 .136-.228c2.014-3.517 3.554-7.285 4.58-11.206 4.2-15.998-16.598-28.196-16.598-28.196l-4.4-3.42c-5-8.42-40.994-16.378-40.994-16.378l-13.398-9-28.196 2-12.366 7.95zm-.483 164.86c7.655 26.476 39.635 17.83 39.635 17.83l.596-3.356-4.395-5.043s-7-18.597-26.396-14.398c-3.54.765-6.804 2.483-9.44 4.967z" class="B"/><path d="M718.37 606.844c11.798 0 42.194 14.198 42.194 14.198 6.2 4.8 14.598 3.2 14.598 3.2s-14.798 14.998-14.398 21.197-8.4 16.398-8.4 16.398L725.17 715.63c2 38.195 41.194 27.596 41.194 27.596l1.6-9c2.4-1.2 6-13.198 6-13.198s0-4.8 2.4-6.2 7.4-15.798 7.4-15.798 10.8-18.198 10.2-20.597 7.8-14.598 7.8-14.598 14.198-13.998 13.598-16.498 11.4-15.298 11.4-15.298a40.38 40.38 0 0 0 10.619-12.39c2.014-3.517 3.554-7.285 4.58-11.206 3.384-12.882-9.447-23.305-14.57-26.868-1.24-.864-2.028-1.328-2.028-1.328l-4.4-3.42c-2.272-3.83-10.96-7.563-19.753-10.495-6.343-2.116-12.746-3.815-16.838-4.835l-4.403-1.048-13.398-9-28.196 2-27.996 17.998s-.412 3.847-.544 9.01l-.024 1.22c-.164 10.455.96 25.165 8.567 25.165z" fill="#565387"/><path d="M778.562 382.874l4.2 14.998 8.2 27.596c.8 1.8 20.197 19.997 20.997 20.397s11.362 6.4 11.362 6.4.836-32.996.036-42.594c-.07-2.11.105-4.218.52-6.287 1.276-7.523 4.503-18.554 7.18-27.048l4.1-12.458s-46.794-2-45.194 2.6c.604 1.74.408 4.647-.176 7.563-.964 4.795-2.98 9.607-4.223 9.235-1.217-.275-2.46-.413-3.708-.412-1.728-.052-3.29.012-3.29.012z" class="H"/><path d="M789.785 374.04a34.61 34.61 0 0 0 41.27 2.296l4.1-12.458s-46.794-2-45.194 2.6c.604 1.74.408 4.647-.176 7.563z" class="B"/><path d="M846.558 346.287c.002 3.67-.582 7.315-1.73 10.8a28.27 28.27 0 0 1-1 2.65 34.6 34.6 0 0 1-64.28-1.34 34.1 34.1 0 0 1-2.16-11.47c-.02-.2-.02-.43-.02-.64 0-19.106 15.49-34.595 34.595-34.595s34.595 15.49 34.595 34.595z" class="H"/><path d="M778.562 382.874l4.2 14.998 8.2 27.596c.8 1.8 20.197 19.997 20.997 20.397s11.362 6.4 11.362 6.4.836-32.996.036-42.594c-.07-2.1.105-4.218.52-6.287l-2.72 11.086.2 22.197 1.6 1.2-3.6 5.4v-4S806.56 426.87 804.56 421.67s-9.2-14.614-9.2-14.614-8.2-13.782-8.4-16.182c-.156-1.872-3.6-6.2-5.107-8-1.728-.052-3.292.012-3.292.012zm69.99 71.2c.244 1.375.72 2.698 1.412 3.9 4.37-.448 19.27-3.228 22.55-20.245l-3.563-3.264s-20.597 14.798-20.397 19.597zM709.804 581.68c4.035-2.856 7.875-6.75 10.167-7.83 3.4-1.6 8.6-6.8 8.6-6.8s1.32-.896 3.344-2.084c3.712-2.176 9.795-5.327 14.454-5.715 4.175-.348 18.046-1.236 28.956-1.916l14.238-.884s12.998-4.6 18.597-1.6a58.76 58.76 0 0 0 12.598 4.599l.024-1.188-.024-.012-4.2-6.8-44.362 3.783-5.63-3.783-28.196 2-8.375 5.383-7.223.616 3.232 1.952-15.63 10.047s-.48 4.467-.568 10.23z" class="B"/><path d="M703.972 583.447c2.117-.63 4.102-1.64 5.855-2.984v-.004c4.027-2.852 7.855-6.735 10.143-7.81 3.4-1.6 8.6-6.8 8.6-6.8s10.6-7.2 17.798-7.8l11-.768 16.326-1.044 8.475-.532 7.395-.456s12.998-4.6 18.597-1.6a58.76 58.76 0 0 0 12.598 4.599c0 0 .2-13.998 1.8-19.797s3.8-16.398 3.8-16.398 1.8-14.598 3.6-21.197 8.8-43.394 12.398-45.794 5.6 1.8 5.6 1.8 23.997-.4 24.397-26.796c0 0-11.198-11.198-11.998-13.998s-11.398-13.198-11.398-13.198-6-11.2-12.798-11.398c-3.213-.185-6.435-.086-9.63.296l-5.767 23.5.2 22.197 1.6 1.2-3.6 5.4v-4s-12.798-12.398-14.798-17.598-9.2-14.614-9.2-14.614-8.2-13.782-8.4-16.182-5.8-8.83-5.8-8.83c-1.13-.132-2.27-.132-3.4 0a3.64 3.64 0 0 1-1.488-.208c-3.23-1.032-6.666-1.227-9.99-.568-6.915 1.436-17.434 4.063-20.317 7.207-4.4 4.8-10.8 9.4-17.998 29.396l38.795 13.998-34.195 64.99-2.412 3.847v.004c-1.8 2.828-4.207 6.515-5.787 8.547-2.8 3.6-2 14.998-2 14.998s-.6 5.4-2.6 7.4-1.6 9.4-1.6 9.4l-5.2 19.398s-4.8 4.4-4.8 6.4-3.8 7.6-3.8 7.6-5.8 9.6 0 8.2z" class="G"/><path d="M908.745 597.845s-12.598 4.2-15.998 10.2 15.998-10.2 15.998-10.2zm-6.4-13.198c-.4.6-17.255 17.513-16.198 21.597s16.198-21.597 16.198-21.597zm-92.588 11.998s-18.797 8.865-20.397 12.73 20.397-12.73 20.397-12.73zm-1.2 11.398s-16.964 7.2-19.28 9 19.28-9 19.28-9zm-7.798 15.397s-7.513 5.6-11.656 1.2 11.656-1.2 11.656-1.2zm28.2-145.98c-.403.6-25.4 45.594-32 48.993s32-48.993 32-48.993zm-1.204 17c0 1-24.397 53.193-28.396 53.793s28.396-53.793 28.396-53.793zm-92.788 33.594s-11.783 25.162-16.398 26.596 16.398-26.596 16.398-26.596zm-1.998-11.198s-4.062 8.8-6.53 8.8 6.53-8.8 6.53-8.8zm113.588-170.57c.002 3.67-.582 7.315-1.73 10.8a28.27 28.27 0 0 1-1 2.65 10.17 10.17 0 0 1-4.85-2.13 12.01 12.01 0 0 1-3.63-3.88 48.61 48.61 0 0 1-1.77-5.05 11.75 11.75 0 0 0-9.49-7.19c1.15 1.96-.68 4.65-2.93 5-2.25.34-4.44-1-6-2.67s-2.67-3.7-4.2-5.37c-1.55-1.67-3.74-3-6-2.67-2 .3-3.53 1.82-5.2 2.95-1.66 1.13-4 1.9-5.6.68-.9-.67-1.34-1.8-2.2-2.54-2.2-1.85-5.65.06-7.28 2.45-2.5 3.7-4.04 5.94-7.3 7.6-.02-.2-.02-.43-.02-.64 0-19.106 15.5-34.595 34.595-34.595s34.595 15.5 34.595 34.595z" class="B"/><path d="M784.69 338.316c1.627-2.392 5.065-4.304 7.28-2.445.86.722 1.3 1.863 2.196 2.538 1.607 1.21 3.94.45 5.603-.683s3.207-2.647 5.196-2.95c2.25-.342 4.444 1 5.99 2.67s2.666 3.7 4.212 5.37 3.74 3.01 6 2.667 4.085-3.037 2.928-4.998a11.75 11.75 0 0 1 9.488 7.19 48.69 48.69 0 0 0 1.772 5.049c.906 1.548 2.148 2.873 3.634 3.876 1.835 1.345 4.06 2.48 6.3 2.09s4.14-2.96 3.097-4.98c.716 1.088 2.254-.428 2.487-1.71a18.29 18.29 0 0 0-.462-8.44c-1.105-3.717-3.423-7.403-2.53-11.177.707-2.988 3.26-5.133 4.8-7.783 2.747-4.698 2.018-11.027-1.323-15.324-3.523-4.27-8.866-6.612-14.394-6.31a23.8 23.8 0 0 1-4.526.084c-2.51-.373-4.634-1.99-6.635-3.55l-16.75-13.075a20.61 20.61 0 0 0-6.331-3.815c-2.367-.734-5.205-.48-6.957 1.272-3.136 3.136-1.143 8.534-2.402 12.787-1.09 3.683-4.6 6.18-8.235 7.424s-7.523 1.517-11.258 2.418c-1.113.184-2.155.67-3.013 1.403a5.96 5.96 0 0 0-1.309 4.252c-.024 3.762.868 7.474 2.6 10.814 1.94 3.73 5.014 7.565 3.926 11.626-.576 2.15-2.232 3.805-3.692 5.485-3.165 3.64-4.234 9.02 1.722 7.14 5.737-1.8 7.347-4.156 10.585-8.915z" class="G"/><g class="B"><path d="M850.867 348.058c-.233 1.282-1.77 2.797-2.487 1.7 1.042 2.023-.856 4.6-3.097 4.98s-4.465-.744-6.3-2.1a11.98 11.98 0 0 1-3.634-3.876 48.69 48.69 0 0 1-1.772-5.049 11.75 11.75 0 0 0-9.488-7.19c1.157 1.96-.678 4.653-2.928 4.998s-4.444-.996-6-2.667-2.666-3.7-4.212-5.37-3.74-3.013-6-2.67c-2 .303-3.534 1.816-5.196 2.95s-3.995 1.894-5.603.683c-.897-.676-1.336-1.817-2.196-2.538-2.216-1.86-5.654.053-7.28 2.445-3.238 4.76-4.847 7.105-10.585 8.915-1.883.594-3.06.46-3.695-.113-1.26 2.9-.686 5.438 3.695 4.056 5.738-1.8 7.347-4.156 10.585-8.915 1.627-2.392 5.065-4.304 7.28-2.445.86.722 1.3 1.863 2.196 2.538 1.607 1.2 3.94.45 5.603-.683s3.207-2.647 5.196-2.95c2.25-.342 4.444 1 6 2.67s2.666 3.7 4.212 5.37 3.74 3 6 2.667 4.085-3.037 2.928-4.998a11.75 11.75 0 0 1 9.488 7.19 48.7 48.7 0 0 0 1.772 5.049 11.97 11.97 0 0 0 3.634 3.876c1.835 1.345 4.06 2.48 6.3 2.1s4.14-2.96 3.097-4.98c.716 1.088 2.254-.427 2.487-1.7a18.27 18.27 0 0 0 .18-5.23 18.02 18.02 0 0 1-.18 1.289zm-74.84-17.243l.05-.152c1.088-4.06-1.986-7.896-3.926-11.626a23.2 23.2 0 0 1-2.486-8.446c-.075.522-.113 1.048-.115 1.575a23.17 23.17 0 0 0 2.6 10.814c1.326 2.55 3.18 5.15 3.875 7.835zm76.657-10.157c-1.55 2.65-4.103 4.796-4.8 7.783a8.68 8.68 0 0 0 .035 3.832c.744-2.928 3.245-5.056 4.775-7.672a13.14 13.14 0 0 0 1.54-8.443c-.217 1.585-.74 3.114-1.54 4.5z"/><path d="M729.757 501.506v.004c.266 1.104.47 2.22.612 3.348 0 0 15.798 36.995 17.798 39.195.616.676 2.936 4.003 5.85 8.287l3.348 4.943 12.798 19.165 14.798 12.998s32.192 2.576 42.422-7.87c-1.24-.864-2.028-1.328-2.028-1.328l-4.4-3.42c-2.272-3.83-10.96-7.563-19.753-10.495-8.103.06-14.73.716-14.73.716l-15.494-40.794s-7.215-37.195-9.615-38.995-1.8-7.4-1.8-7.4 4.4-15.798 2.8-17.998 2.6-18.398 2.6-18.398a16.78 16.78 0 0 0-1.92-4.487l-30.876 58.68-2.412 3.847z"/></g><path d="M765.364 442.266s-4.2 16.198-2.6 18.398-2.8 17.998-2.8 17.998-.6 5.6 1.8 7.4 9.614 38.995 9.614 38.995l15.493 40.795s48.482-4.8 43.483 10.4-44.994 11.998-44.994 11.998l-14.798-12.998-21.997-32.396c-2-2.2-17.798-39.195-17.798-39.195s-.8-7.4-4.2-11.2-.8-10.226-.8-10.226-4.2-48.366.2-54.165 34.795-3.2 39.395 14.198z" class="H"/><use xlink:href="#J" class="B"/><use xlink:href="#J" x="-0.4" y="-0.8" class="G"/><ellipse cx="627.879" cy="721.411" rx="37.557" ry="39.865" class="C"/><ellipse cx="627.879" cy="721.411" rx="37.557" ry="39.865" class="B"/><ellipse cx="634.36" cy="722.298" rx="37.557" ry="38.978" class="C"/><g class="D"><ellipse cx="90.143" cy="735.477" rx="46.386" ry="7.841"/><path d="M109.323 722.648c1.987-1.846 3.85-4.023 4.422-6.674s-.557-5.83-3.1-6.798c-2.838-1.085-5.87.882-8.17 2.868s-4.935 4.254-7.944 3.833c3.15-2.854 4.57-7.15 3.74-11.32a4.73 4.73 0 0 0-1.04-2.299c-1.575-1.684-4.432-.96-6.318.366-6 4.22-7.673 12.37-7.706 19.703-.605-2.646-.095-5.403-.1-8.116s-.76-5.722-3.048-7.18a9.18 9.18 0 0 0-4.649-1.093c-2.697-.1-5.7.17-7.542 2.144-2.288 2.45-1.695 6.563.296 9.26s5.02 4.388 7.806 6.252a17.31 17.31 0 0 1 5.578 5.321c.17.302.307.62.414.95h16.906a47.11 47.11 0 0 0 10.455-7.22z"/><use xlink:href="#K"/><use xlink:href="#L"/><use xlink:href="#M"/><use xlink:href="#N"/></g><use xlink:href="#K" class="F"/><use xlink:href="#L" class="F"/><use xlink:href="#M" class="F"/><use xlink:href="#N" class="F"/><path d="M611.616 497.454c0 134.16-45.384 242.916-254.82 242.916-140.733 0-249.612-34.968-254.82-242.916-3.36-134.117 114.087-242.916 254.82-242.916s254.82 108.757 254.82 242.916z" class="D"/><path d="M308.994 258.78h.03c-.007.004-.014.007-.022.007zm.498-.083l3.787-.424-4.144.5q.1-.022.223-.045l.134-.022zm188.292 99.257l-18.6 6.696a415.47 415.47 0 0 0-30.556-36.426 298.55 298.55 0 0 0-38.695-34.663c-47.623-35.295-84.46-36.196-96.623-35.288l27.96-3.288a227.32 227.32 0 0 1 75.062 27.134c16.248 9.366 31.38 20.546 45.1 33.324 24.344 22.595 36.344 42.512 36.344 42.512zM329.64 370.602s-24.552-81.84-3.72-104.16c0 0 32.736-11.16 57.288 52.08z" class="F"/><path d="M453.962 294.163s65.1-55.33 93.913-45.205c0 0 23.358 25.506-24.714 73.372z" class="D"/><path d="M453.962 294.163s65.1-55.33 93.913-45.205c0 0 23.358 25.506-24.714 73.372z" class="F"/><use xlink:href="#O" class="D"/><use xlink:href="#O" class="F"/><g class="D"><ellipse cx="553.584" cy="569.994" rx="16.368" ry="20.832"/><ellipse cx="611.616" cy="552.138" rx="16.368" ry="20.832"/></g><path d="M464.616 302.005c.01 4.666-1.077 9.27-3.177 13.437a28.55 28.55 0 0 1-12.812 12.782c-11.867-12.657-24.814-24.255-38.695-34.663a29.16 29.16 0 0 1 6.398-11.443 27.43 27.43 0 0 1 20.341-9.114c15.43 0 27.945 12.983 27.945 29z" fill="#fad46f"/></svg>