<svg xmlns="http://www.w3.org/2000/svg" xmlns:xlink="http://www.w3.org/1999/xlink" width="1144" height="774.711"><style><![CDATA[.B{opacity:.1}.C{fill:#3f3d56}.D{fill:#31b8a2}.E{fill:#444053}.F{fill:#67647e}.G{fill:#65617d}.H{opacity:.2}.I{fill:#be6f72}.J{fill:#fbbebe}.K{fill:#ee8e9e}]]></style><defs><linearGradient id="A" x1="158.362" y1="837.356" x2="158.362" y2="581.619" gradientUnits="userSpaceOnUse"><stop offset="0" stop-color="gray" stop-opacity=".25"/><stop offset=".535" stop-color="gray" stop-opacity=".12"/><stop offset="1" stop-color="gray" stop-opacity=".1"/></linearGradient><linearGradient id="B" x1="980.324" y1="824.826" x2="980.324" y2="557.005" xlink:href="#A"/><linearGradient id="C" x1="429.302" y1="469.493" x2="429.302" y2="167.607" xlink:href="#A"/><path id="D" d="M89.466 641.608s9.8 7.49 17.378 1.782c0 0-12.81 1.165-17.378-1.782z"/><path id="E" d="M625.742 257.737h-123.14v-4.346h123.14z"/><path id="F" d="M1035.393 721.954s-3.588 21.658-21.786 24.862-78.943 2.563-78.943 2.563-34.73-4.998-47.29-34.345-20.633-41.01-9.868-41.522 68.818 19.607 72.15 19.864 88.94-44.597 85.735 28.578z"/><path id="G" d="M947.933 573.516s-12.884-2.654-16.344-.86-10.252 3.204-11.278 4.23-3.588.256-5.895 6.28-2.563 12.175-5.51 14.994-4.485 4.742-4.614 6.792.384 2.563-.77 3.204-2.82 3.332-2.307 4.357 26.656 23.58 26.656 23.58 1.282 8.586 2.435 10.765-1.282 32.167-3.845 34.217 17.3 1.86 17.3 1.86.897-19.675 1.666-20.7-.513-22.042-.513-22.042-.128-17.942 1.538-22.683 1.478-20.505 1.478-20.505 1.473-9.46 3.263-11.662-3.263-11.827-3.263-11.827z"/><path id="H" d="M1022.38 589.992s11.918-3.46 8.97 30.372-25 55.234-25 55.234-25.374 11.15-36.78 9.355-19.736-2.18-19.736-2.18a28.97 28.97 0 0 0-11.534-3.076c-6.408-.256-19.864-4.23-20.12-5.51s3.332-20.12 1.794-21.53c0 0 17.942.735 19.736 2.034s4.357.368 6.28 0 7.817-5.494 19.48-1.008c0 0 3.973.384 5.51-.64s4.008-.256 4.008-.256a11.28 11.28 0 0 0 2.784-1.41c.384-.513 3.46 0 3.46 0 .37.18.802.185 1.176.01s.648-.508.747-.908c.403-1.05 1.013-2 1.794-2.82 0 0 3.46-19.48 9.996-26.784 0 0 1.922-1.666 1.4-3.716s10.637-31.27 26.015-27.17z"/><path id="I" d="M979.645 744.382c.27 6.455 5.302 14.47 8.304 18.712l3.36-.13s-1.17-31.19-2.053-34.475c-.423-1.57-2.495-1.223-4.54-.438-2.484 4.652-5.286 11.126-5.07 16.332z"/><path id="J" d="M361.276 345.12c.654 14.614 17.232 8.943 19.63 6.98.343-.282.655-.6.93-.95-5.793 2.133-16.063 3.782-19.404-9.362-.46 1.084-.846 2.197-1.156 3.333z"/><path id="K" d="M297.583 357.334s12.65 3.708 19.63 3.272c6.112-.384 5.2-6.282 4.877-7.743-6.404-.2-17.433-.803-23.156-2.535-.012.012-.027.02-.044.026-1.527.654-1.31 6.98-1.31 6.98z"/><path id="L" d="M444.735 162.242l6.627 6.413 9.715-16.21a.96.96 0 0 1-.336-.803c.214-2.792-9.297-8.756-9.59-8.94 8.014 7.21-4.947 18.323-6.417 19.54z"/><path id="M" d="M363.676 251.98c5.453 2.4 41.226-3.926 46.46-5.453s12.87-13.306 9.16-21.813 1.31-16.796 1.31-16.796l9.598-20.068c1.745-3.272 5.383-12.8 5.89-14.396.042-.362-.07-.724-.3-1-1.418-2.16-6.888-5.98-6.888-5.98-1.54.558-1.732-3.852-1.67-7.093.035-1.815.144-3.263.144-3.263s-.724.737-1.906 1.74c-.432.362-.925.763-1.47 1.178-2.055 1.643-4.382 2.914-6.875 3.756-5.235 1.55-12.65 8.7-12.65 8.7l2.18 33.5s-5.017 31.502-10.252 37.61-20.94 5.89-26.175 5.89-6.544 3.5-6.544 3.5z"/><path id="N" d="M422.57 155.68l.55 2.92c1.174 6 3.974 19.07 5.994 18.563 1.448-.362 3.896-2.927 5.798-5.143-1.418-2.16-6.888-5.98-6.888-5.98-1.54.558-1.732-3.852-1.67-7.093l-1.762-1.523z"/><path id="O" d="M398.98 239.555a5.83 5.83 0 0 0 4.066 2.827c4.27.5 8.597.1 12.704-1.174 0 0-21.974-6.98-.816-23.955h-5.67l-1.89-.715c-3.106 5.5-7.996 15.29-8.393 23.017z"/></defs><g class="D"><path d="M1144 461.326c0-71.093-30.065-133.884-75.99-171.64q.948-10.775.96-21.855c0-115.43-79.237-209.002-176.98-209.002-31.178 0-60.466 9.533-85.907 26.248C736.89 32.08 646.56 0 547.74 0c-160.793 0-299.1 84.93-360.46 206.718-3.4-.23-6.843-.36-10.302-.36C79.237 206.357 0 299.93 0 415.36c0 42.438 10.72 81.912 29.123 114.878h0c0 103.853 84.2 188.043 188.043 188.043H970.24c81.542 0 147.645-66.103 147.645-147.645h0C1134.443 538.83 1144 501.4 1144 461.326z" class="B"/><path d="M651.518 664.626s-12.3-8.1-24.473-2.34c0 0 3.753 7.228 19.17 6.54zm1.51.434s3.74 14.242-5.633 23.93c0 0-5.643-5.873-.045-20.255zm15.327-13.672s-.907-12.112-28.255-8.093c0 0-.13 7.814 9.474 11.517s13.992.58 18.78-3.423zm1.684-.082s11.563 3.718 1.253 29.364c0 0-7.627-1.705-8.978-11.907s2.7-13.74 7.726-17.457zm15.482-17.18s1.564-19.93-26.38-17.884c0 0-1.985 18.038 21.45 22.676zm18.48-22.5s-3.832-22.583-31.768-15.852c0 0-.105 19.526 27.206 21.236zm13.484-23.26s-6.414-22.048-34.094-15.414c0 0 6.586 19.786 32.257 19.477zm12.822-22.713s-6.272-22.835-32.988-15.978c0 0 8.917 21.7 31.23 19.864zm8.267-21.58s-4.822-27.924-29.742-21.744c0 0 7.24 25.4 27.906 25.807zM746.318 518s-5.785-28.146-30.974-19.96c0 0 9.9 26.598 29.217 23.847zm4.798-24.266s-9.188-28.143-28.68-27.38c0 0 9.396 29.727 27.052 33.03zm3.047-23.674s-10-33.882-25.863-31.267c0 0 6.923 25.895 25.3 36.543zm1.73-28.282s-9.372-28.232-25.033-29.355c0 0 6.378 27.776 24.687 36.692zm1.906-26.328s-11.7-28.263-22.04-28.9c0 0 5.078 27.827 21.006 33.54zm1.288-24.52s-7.186-30.695-17.524-33.24c0 0 1.415 25.107 16.485 35.537zm3.886-32.086s-7.558-24.46-15.927-28.193c0 0 1.654 28.843 13.987 34.177z"/><path d="M766.208 337.768l1.525-43.14s-15.62 32.556-2.676 50.75zm12.084-42.87s11.264-31.502 13.972-33.256c0 0-22.096 20.435-19.94 46.728zM686.28 633.98s19.823-2.594 19.227 25.42c0 0-17.9 2.917-23.756-20.246zm18.646-23.108s22.906-.076 21.04 28.598c0 0-19.222 3.434-25.566-23.185zm12.784-20.65s20.8-9.75 34.094 15.414c0 0-19.205 8.125-35.93-11.35zm13.06-24.36s21.286-10.376 33.786 14.2c0 0-22.174 7.634-35.543-10.325zm7.53-21.186s20.5-19.573 36.843.222c0 0-20.932 16.106-37.784 4.137zm6.856-27.347s20.617-20.016 36.837.922c0 0-23.14 16.427-37.57 3.28z"/><path d="M749.013 492.935s15.88-24.984 34.576-19.412c0 0-16.476 26.468-34.4 25.287zm4.677-23.033s16.016-31.488 31.135-26.02c0 0-11.533 24.197-31.544 31.312zm1.104-29.73s16.452-24.783 31.86-21.757c0 0-13.444 25.13-33.45 28.927zm1.256-25.277s12.747-27.802 23.114-28.048c0 0-6.124 27.616-22.256 32.722zm2.53-24.57s14.17-28.16 24.816-28.217c0 0-7.25 24.08-24.344 30.693zm2.13-29.754s10.6-23.304 19.375-25.944c0 0-5.3 28.4-18.2 32.126zm6.76-23.617l23.688-36.085s-6.07 35.596-27.147 42.96zm16.26-39.155s27.532-19.007 28.528-22.076c0 0-14.045 26.62-40.005 31.316zm1.646-8.545s31.6-30.388 39.68-30.356c0 0-26.068 1.193-40.438 28.737z"/></g><g class="E"><path d="M761.015 365.082l1.154.148c5.94-46.496 14.6-73.974 24.385-77.373l-.382-1.1c-10.373 3.603-19.072 30.687-25.157 78.324z"/><path d="M752.282 476.255l1.74.147c.365-4.342.647-8.786.838-13.21 1.658-38.485 4.23-73.82 7.615-100.313l-1.008-1.246c-3.39 26.54-6.7 62.95-8.35 101.484a322.84 322.84 0 0 1-.833 13.138z"/><path d="M619.057 686.76c.306-.134 30.934-13.8 62.724-46.436 18.62-19.093 34.096-41.017 45.85-64.956 14.696-29.925 23.655-66.71 26.66-102.438l-1.813.852c-6.748 80.194-43.26 135.023-72.293 164.843-31.48 32.335-61.764 45.87-62.066 46.004z"/></g><path d="M629.676 302.12v377.782c0 11.236-10.837 20.37-24.217 20.37H92.892c-13.38 0-24.217-9.135-24.217-20.37V302.12c0-11.256 10.836-22.727 24.217-22.727h512.566c13.38 0 24.217 11.47 24.217 22.727z" fill="#fff"/><path d="M629.676 303.61V363h-561v-59.39a24.21 24.21 0 0 1 24.217-24.217h512.566a24.21 24.21 0 0 1 24.217 24.217z" class="D H"/><g fill="#fff"><circle cx="99.441" cy="321.196" r="16.194"/><circle cx="146.556" cy="321.196" r="16.194"/><circle cx="193.671" cy="321.196" r="16.194"/></g><path d="M232.783 762.227s-15.658 3.79-21.857 10.872a21.08 21.08 0 0 1-8.335 5.296v-10.712c3.58-6.015 7.193-12.705 7.193-12.705.163-.33 1.468-4.942 1.468-4.942 2.936-2.306-.163-10.378-.163-10.378s1.794-5.107.816-6.095-.163-3.624.652-4.777c.594-1.11.822-2.377.652-3.624 0-.988-1.305-2.47-3.425-3.295s.163-2.14 1.468-2.47 1.63-3.46.163-5.107.163-2.636.98-4.448-2.6-1.483-2.6-1.483l.002-16.636s-.98-5.436-1.957-14.994-4.732-10.54-4.732-10.54a42.69 42.69 0 0 1-5.872-2.308 40.19 40.19 0 0 0-6.2-2.303 31.78 31.78 0 0 1-7.991-1.107 24.51 24.51 0 0 0-5.456-1.181c-.2-.094-.39-.193-.587-.292-4.416-2.242-7.915-5.95-9.9-10.487a23.35 23.35 0 0 1-.284-.672 23.29 23.29 0 0 0 2.608-3.459l.017-.028.007.504-.003.212-.017 1.217.002-.004v.036c2.604-4.597 10.15-5.646 10.868-10.892a5.5 5.5 0 0 0 .047-.719v-.033c0-.177-.008-.354-.02-.53-.097-1.465-.6-2.923-.697-4.404a8.58 8.58 0 0 1 .021-1.271l.003.024c.337-4.076 3.4-7.618 4.818-11.577a14.18 14.18 0 0 0 .734-3.294l.003-.03q.052-.5.07-1.022c.003-.085.003-.17.005-.254q.006-.356-.004-.71c-.088-4.254-1.93-8.283-5.09-11.13-2.6-2.26-6.037-3.68-7.837-6.63-.84-1.376-1.253-2.993-2.168-4.32-1.724-2.498-4.895-3.516-7.888-3.878s-6.08-.24-8.948-1.182c-2.032-.668-3.876-1.847-5.93-2.442a11.35 11.35 0 0 0-12.188 4.395c-1.082 1.58-1.79 3.47-3.25 4.702-2.99 2.525-8.06 1.43-10.68 4.344-1.438 1.6-1.603 3.78-1.43 6.01l.006.078q.02.26.048.52l.025.24.03.258.308 2.36.04.35.08.714.046.523q.027.324.047.648l.03.508a35.16 35.16 0 0 1-3.741 17.569c-2.467 4.845-6.138 9.304-6.777 14.715-.1.886-.123 1.78-.07 2.668l.015.314c.01.16.03.32.044.48l.056.55.044.314.1.73.028.156c.648 3.687 2.115 7.326 2.898 11.025.3 1.374.485 2.766.583 4.166l.001.03q.046.667.064 1.336c.015.603.007 1.207-.013 1.8a28.39 28.39 0 0 1-3.802 1.167c-2.285.33-8.974 6.26-8.485 7.744.484 1.463-2.995 11.875-3.093 12.182l-.005.005.001.001h-.001l-5.503 37.887s-2.906 2.8-1.998 4.612-.176 4.942-.176 4.942-4.91 2.14-3.82 3.46.592 3.79-.158 5.436-1.974 4.612 0 5.107.34 6.92.34 6.92 6.884-.8 6.38 3.295c-.162 1.305 4.815 4.88 6.893 6.313v19.68c-2.78-.726-5.506-1.65-8.155-2.766-4.24-1.977-28.055-5.765-33.274 5.6s7.177 26.52 10.276 28.168c0 0 2.936 2.306 3.588 3.46s4.404 1.483 4.404 1.483 3.915 1.812 4.893 2.8c.722.73 6.683 2.623 13.754 4.096h-.001s-5.71 13.144 3.604 12.06 13.85-5.668 20.417-5.668c2.624 0 7.498-.366 12.405-.805a32.71 32.71 0 0 1 3.647.86c2.765.866 5.604 1.473 8.482 1.812 0 0 7.34 3.953 11.254 2.965a2.57 2.57 0 0 0 .889-.476c.03-.007.06-.01.09-.02a5.23 5.23 0 0 0 2.358-2.021c4.9.5 10.477 1.214 12.577 2.024 4.06 1.568 33.074-.603 33.074-.603s18.746.37 24.12 1.993 3.463-16.584-6.448-18.634c-2.657-.507-5.358-.746-8.063-.713a17.68 17.68 0 0 0 1.873-2.277l5.917-.525 14.843-7.413a33.85 33.85 0 0 0 9.134-7.248l6.687-4.118c1.957-1.153 2.936-4.942 2.936-4.942 14.843-33.604-22.835-29.157-22.835-29.157zm-42.476-42.154l.006-1.66c.52.377.445.966-.006 1.66zm.155 11.65c.394.52.78.994 1.054 1.347 1.054 1.352-.854 2.01-.716 4.277l.123 1.998-.46-7.622z" transform="translate(-28 -62.644)" fill="url(#A)"/><g class="G"><path d="M77.56 721.065s-9.134-2.12-13.375-4.078-28.055-5.71-33.274 5.546 7.177 26.26 10.276 27.89S74.46 729.7 74.46 729.7l23.814 10.03 4.567-15.577z"/><rect x="87.63" y="724.164" width="103.616" height="36.047" rx="16.588"/></g><path d="M191.245 742.186a18.03 18.03 0 0 1-18.022 18.027h-67.57c-9.955 0-18.024-8.07-18.024-18.024s8.07-18.024 18.024-18.024h67.57c9.953.001 18.02 8.07 18.022 18.022z" class="B"/><path d="M134.83 743.24s-10.388 2.668-18.865 2.55-48.14 16.358-48.14 16.358-5.7 13.015 3.604 11.94 13.85-5.612 20.417-5.612 27.223-2.27 27.223-2.27l19.88-14.686zm6.504-122.812l-19.847 3.915-15.223-4.242c-.5-.323-13.863-18.35-13.863-18.35s6.762.073 12.077-3a13.22 13.22 0 0 0 .563-.343 11.76 11.76 0 0 0 5.04-6.156 12.9 12.9 0 0 0 .254-.837c.608-2.647.554-5.403-.157-8.025-1.8-7.604 2.373-9.698 7.937-9.517 8.035.264 18.976 5.28 18.976 5.28.14 2.56.72 5.076 1.718 7.438.088.22.186.44.284.665a21.22 21.22 0 0 0 9.9 10.383l.587.3a23.32 23.32 0 0 0 1.869.798c14.2 5.383-10.114 21.692-10.114 21.692z" class="J"/><path d="M139.093 587.266c-7.3 8.27-19.368 10.348-29.012 4.996a15.79 15.79 0 0 0 .098-8.862c-4.404-18.594 26.913-4.238 26.913-4.238.157 2.802.836 5.55 2 8.103z" class="B"/><path d="M144.975 570.746c.007 4.395-1.226 8.703-3.557 12.43a23.09 23.09 0 0 1-2.608 3.425c-4.108 4.507-9.815 7.23-15.903 7.59-.47.03-.944.044-1.42.044-12.972 0-23.488-10.516-23.488-23.488s10.516-23.488 23.488-23.488 23.488 10.516 23.488 23.488z" class="J"/><path d="M141.334 620.428l-19.847 3.915-15.223-4.242c-.49-.323-13.863-18.35-13.863-18.35s6.762.073 12.077-3a13.22 13.22 0 0 0 .563-.343 21.87 21.87 0 0 0 15.898 6.953c1.11-.007 2.22-.095 3.318-.264 2.623-.4 5.265-.66 7.903-.935 5.05-.528 12.776-2.06 16.833-6.523l.587.29a23.32 23.32 0 0 0 1.869.798c14.2 5.383-10.114 21.692-10.114 21.692z" class="B"/><path d="M162.375 668.053c.16 3.592 2.774 44.04 2.774 44.04H83.756l1.145-52.52.65-23.16-15.164-13.383c.098-.303 3.577-10.613 3.093-12.062-.49-1.468 6.2-7.34 8.485-7.668 1.3-.3 2.58-.688 3.827-1.165 3.846-1.35 8.98-3.337 9.547-3.03.798.43 8.803-.313 9.14-.347h.01c4.125 4.794 10.127 7.563 16.45 7.59a22.62 22.62 0 0 0 3.318-.264c2.623-.4 5.265-.66 7.903-.935 5.304-.553 13.554-2.217 17.42-7.213 1.857.183 3.687.575 5.456 1.17a32.08 32.08 0 0 0 7.991 1.096 40.45 40.45 0 0 1 6.2 2.28c1.9.904 3.86 1.668 5.872 2.285 0 0 3.753.98 4.732 10.437s1.957 14.846 1.957 14.846l-19.412 16.8v21.202z" class="D"/><path d="M70.382 696.273l2.852 4.567 10.686 3.766 7.34-13.4-6.767-4.567-10.85-4.24-6.198 3.588 2.936 10.276z" class="J"/><path d="M161.56 718.782s15.17-1.142 21.367-8.155 21.857-10.765 21.857-10.765 37.678-4.404 22.835 28.87c0 0-.98 3.75-2.936 4.893s-6.687 4.078-6.687 4.078l-57.893-5.056z" class="G"/><path d="M191.245 742.186c.005 3.544-1.04 7-3 9.963-9.738.866-31.307 2.892-35.82 4.15-5.544 1.536-16.764-1.14-17.992-1.444-.073-.015-.113-.024-.113-.024s-2.163-6.562-3.195-10.76c-.465-1.908-.7-3.327-.396-3.43.98-.328 9.953-2.774 9.786-1.4s26.913-10.52 26.913-10.52l.832 10.44c2.76 3.166 22.984-1.515 22.984 3.016z" class="B"/><path d="M219.137 733.462l-1.142 4.24a33.78 33.78 0 0 1-9.134 7.177c-5.383 2.773-14.843 7.34-14.843 7.34s-34.742 2.936-40.614 4.567-18.105-1.468-18.105-1.468-4.567-13.864-3.588-14.2 9.95-2.773 9.787-1.386 26.913-10.52 26.913-10.52z" class="G"/><path d="M122.412 770.028s17.074 1.194 21.134 2.746 33.074-.597 33.074-.597 18.746.365 24.12 1.973 3.463-16.42-6.448-18.45-23.88.955-23.88.955l-17.67-2.27c-1.9-.24-14.505.116-14.505.116z" class="J"/><path d="M55.3 725.014s22.567 2.03 28.775 5.73zm140.782-14.806s-17.67 4.298-24.596 10.627zm-139.46 9.672c.358.12 10.388 1.433 10.15 2.388s-10.15-2.388-10.15-2.388zM40.86 745.042l1.305 4.893c1.326.997 2.53 2.147 3.588 3.425.652 1.142 4.404 1.468 4.404 1.468s3.915 1.794 4.893 2.773 11.58 4.078 21.53 5.383 28.38 3.75 32.295 5.056c2.766.858 5.605 1.458 8.482 1.794 0 0 7.34 3.915 11.254 2.936s10.602-18.757 10.602-18.757-25.77-6.035-26.587-7.992-25.608-11.086-25.608-11.086l-14.68.347z" class="B"/><path d="M39.88 745.532l1.305 4.893c1.326.997 2.53 2.147 3.588 3.425.652 1.142 4.404 1.468 4.404 1.468s3.915 1.794 4.893 2.773 11.58 4.078 21.53 5.383 28.38 3.75 32.295 5.056c2.766.858 5.605 1.458 8.482 1.794 0 0 7.34 3.915 11.254 2.936s10.602-18.757 10.602-18.757-25.77-6.035-26.587-7.992-37.19-16.8-37.19-16.8l-11.418-2.6z" class="G"/><path d="M73.234 621.406l-2.85 1.63-5.503 37.515s-2.906 2.773-1.998 4.567-.176 4.893-.176 4.893-4.91 2.12-3.82 3.425.592 3.75-.158 5.383-1.974 4.567 0 5.056.34 6.85.34 6.85 6.884-.782 6.38 3.262c-.204 1.63 7.787 6.85 7.787 6.85s-9.08-16.474 11.26-14.2l1.75-9.288s1.75-5.23 0-6.86.393-9.38.393-9.38l.384-33.682z" class="D"/><path d="M68.802 669.85c.358.597 11.343 1.815 12.06 3.773s-12.06-3.773-12.06-3.773zm-3.462 9.314s1.5-4.657 5.043-3.82-5.043 3.82-5.043 3.82zm-1.9 6.806s2.627-6.2 6.2-5.73-6.2 5.73-6.2 5.73z" class="B"/><path d="M182.927 685.834l-1.142 6.85s-11.744 21.53-13.864 21.856-13.7-14.354-13.7-14.354l-3.1-14.354 12.2-2.312 5.415-5.354s13.7 1.305 14.2 7.666z" class="J"/><path d="M177.38 626.952l4.404 3.1v16.474s3.425-.326 2.6 1.468-2.447 2.773-.98 4.404 1.142 4.73-.163 5.056-3.588 1.63-1.468 2.447 3.425 2.284 3.425 3.262a5.86 5.86 0 0 1-.652 3.588c-.816 1.142-1.63 3.75-.652 4.73s-.816 6.035-.816 6.035 3.1 7.992.163 10.276l-1.468 4.893s2.055-15.88-18.464-9.163l-.52-8.296c-.138-2.245 1.77-2.896.716-4.235s-3.693-4.404-2.447-5.22.816-2.284.326-3.425-2.217-1.142-.654-2.528 2.486-2.688 1.57-3.342-2.5-2.78-1.242-3.753 1.305-15.17 1.305-15.17 5.22-20.878 15.006-10.602z" class="D"/><path d="M175.306 655.016s6.27-1.7 6.48 0-6.48 0-6.48 0zm-7.044 4.686s8.597-2.15 9.67-.478-9.67.478-9.67.478zm-1.912 4.538s12.895-1.8 13.73.836-13.73-.836-13.73-.836zm1.912 5.6c.478.12 12.418.955 12.656 3.224s-12.656-3.224-12.656-3.224z" class="B"/><rect x="72.34" y="677.204" width="102.252" height="58.079" rx="10.467" class="C"/><circle cx="123.466" cy="706.243" r="3.772" fill="#e7effd"/><use xlink:href="#D" class="B"/><use xlink:href="#D" x="49.627" y="2.012" class="B"/><path d="M144.975 570.746c.007 4.395-1.226 8.703-3.557 12.43-.196-6.542-1.737-13.085-5.294-18.545-3.26-5.006-13.163-13.78-19.974-11.338-1.445.532-2.55 1.72-2.975 3.2-.675 2.564 1.302 3.63 2.57 5.67 2.153 3.502 2.994 7.655 2.373 11.72a16.5 16.5 0 0 1-.343 1.625c-1.072 4.022-3.528 8.627-.993 11.93 1.766 2.3 5.564 3.093 6.077 5.945a3.48 3.48 0 0 1 .049.807c-.117 1.918-1.757 3.61-2.47 5.5-.842 2.222-.367 4.428.504 6.66 1.135 2.91 2.94 5.857 3.376 8.93.43 3.03-.504 5.926-1.62 8.823a39.54 39.54 0 0 0-2.691 8.304c-.788 5.422 1.2 11.7-2.212 15.976-.347.518-.882.88-1.492 1.008-2.187.23-1.815-3.7-3.572-5.02.186 2.285.362 4.663-.465 6.802s-2.985 3.95-5.25 3.592q-.39-2.562-.778-5.128a14.79 14.79 0 0 1-5.432 3.401 39.59 39.59 0 0 1 5.666-15.35c-5.745 2.765-9.092 8.754-12.08 14.38-1.864 3.518-3.792 7.364-3.14 11.294.264 1.6.954 3.122 1.106 4.737s-.436 3.494-1.938 4.1a3.5 3.5 0 0 1-3.782-1.174l-.16-.196a3.82 3.82 0 0 1-.259-.367 5.7 5.7 0 0 1-.435-.773 14.99 14.99 0 0 1-.92-3l-.103-.44c-1.517-6.67-2.887-13.544-1.776-20.287.41-2.486 1.16-4.947 1.072-7.467a13.81 13.81 0 0 0-.851-4.164c-1.33-3.73-3.895-7.16-5.358-10.917a.6.6 0 0 1-.034-.083c-.768-1.992-1.145-4.477.274-6.073a12.36 12.36 0 0 1 2.726-1.845c2.838-1.85 4.1-5.358 4.63-8.705.24-1.515.358-3.046.357-4.58 3.846-1.35 8.98-3.337 9.547-3.03.798.43 8.803-.313 9.14-.347a11.96 11.96 0 0 0 5.603-6.498 12.9 12.9 0 0 0 .254-.837c-10.11-5.45-14.795-17.413-11.077-28.28s14.75-17.452 26.078-15.568 19.636 11.684 19.638 23.17z" class="B"/><path d="M117.773 574.528c-1.073 4.024-3.527 8.628-.99 11.93 1.767 2.302 5.563 3.09 6.074 5.948.404 2.26-1.608 4.16-2.42 6.307-1.937 5.124 3.11 10.163 3.88 15.587.832 5.884-3.455 11.248-4.31 17.13-.788 5.42 1.2 11.688-2.213 15.973a2.37 2.37 0 0 1-1.492 1.01c-2.187.232-1.816-3.696-3.574-5.018.19 2.285.366 4.663-.464 6.8s-2.984 3.948-5.25 3.59l-.778-5.13c-1.54 1.516-3.395 2.677-5.432 3.402a39.61 39.61 0 0 1 5.667-15.35c-5.742 2.766-9.1 8.752-12.08 14.382-1.867 3.517-3.793 7.363-3.142 11.29.265 1.602.954 3.122 1.106 4.738s-.436 3.493-1.94 4.11a3.56 3.56 0 0 1-3.943-1.367c-.833-1.247-1.384-2.66-1.614-4.142C83.3 658.91 81.84 651.88 82.98 645c.41-2.486 1.16-4.948 1.07-7.466-.197-5.507-4.26-10.022-6.245-15.163-.77-1.992-1.143-4.477.274-6.074a12.45 12.45 0 0 1 2.729-1.844c2.837-1.85 4.1-5.357 4.63-8.704.56-3.62.456-7.313-.307-10.896-1.146-5.365-3.772-10.6-3.122-16.048.64-5.357 4.31-9.772 6.777-14.57a34.49 34.49 0 0 0 3.495-20.146c-.425-3.217-1.167-6.94 1.014-9.343 2.62-2.885 7.7-1.8 10.68-4.3 1.458-1.22 2.167-3.092 3.25-4.656 2.767-3.838 7.616-5.57 12.188-4.352 2.054.59 3.898 1.757 5.93 2.418 2.867.933 5.954.813 8.948 1.17s6.165 1.366 7.888 3.84c.915 1.313 1.328 2.915 2.168 4.277 1.8 2.92 5.237 4.327 7.837 6.565 4.56 4.065 6.247 10.465 4.282 16.25-1.553 4.324-5.145 8.145-4.84 12.73.126 1.883.926 3.73.668 5.6-.72 5.195-8.264 6.234-10.868 10.785.207-7.463-1.225-15.154-5.3-21.41-3.26-5.007-13.165-13.78-19.974-11.34-1.445.532-2.55 1.72-2.976 3.2-.674 2.564 1.3 3.63 2.568 5.673 2.46 3.987 3.195 8.803 2.03 13.34z" class="C"/><path d="M85.78 600.4a30.17 30.17 0 0 0-.65-6.984c-.974-4.56-3-9.03-3.202-13.613-.26 5.102 2.125 10.034 3.202 15.08a30.1 30.1 0 0 1 .65 5.516zm19.44 37.033l1.252-2.15c-5.742 2.766-9.1 8.752-12.08 14.382-1.73 3.256-3.504 6.796-3.24 10.42.218-3.1 1.747-6.138 3.24-8.953 2.764-5.206 5.84-10.712 10.827-13.7zM92.327 666.93a3.46 3.46 0 0 1-1.909 2.862 3.56 3.56 0 0 1-3.943-1.367 10.3 10.3 0 0 1-1.614-4.142 73.6 73.6 0 0 1-2.27-14.8c-.1 5.446 1.047 10.93 2.27 16.278.23 1.482.78 2.895 1.614 4.142a3.56 3.56 0 0 0 3.943 1.367c1.503-.616 2.1-2.493 1.94-4.1-.007-.074-.02-.147-.03-.22zm25.976-97.306a16.32 16.32 0 0 1-.529 3.468c-.796 2.983-2.348 6.284-2.066 9.138.217-2.483 1.403-5.187 2.066-7.67a16.54 16.54 0 0 0 .529-4.936zM92.56 547.85c.04-1.74-.053-3.48-.28-5.205l-.45-3.937a29.41 29.41 0 0 0 .45 5.405c.163 1.24.256 2.487.28 3.737zm30.297 44.588c-.007-.04-.02-.076-.03-.115-.347 1.698-1.745 3.248-2.4 4.954a7 7 0 0 0-.4 3.192 6.66 6.66 0 0 1 .4-1.724c.812-2.148 2.824-4.047 2.42-6.307zm-38.807 43.65c-.197-5.507-4.26-10.022-6.245-15.163a10.19 10.19 0 0 1-.638-2.508 8.45 8.45 0 0 0 .638 3.976c1.95 5.056 5.904 9.507 6.223 14.9a12.88 12.88 0 0 0 .022-1.196zm52.076-73.873c-3.26-5.007-13.165-13.78-19.974-11.34-1.445.532-2.55 1.72-2.976 3.2a3.46 3.46 0 0 0-.05 1.715c.017-.082.03-.162.05-.248a4.83 4.83 0 0 1 2.976-3.2c6.8-2.442 16.713 6.332 19.974 11.34 3.7 5.667 5.207 12.5 5.308 19.294.108-7.26-1.35-14.686-5.308-20.762zm16.166 10.625c-.717 5.183-8.23 6.23-10.85 10.756q.002.75-.018 1.497c2.604-4.552 10.15-5.6 10.868-10.785a6.38 6.38 0 0 0 .005-1.538c-.003.023-.002.047-.005.07zm4.172-18.328c-1.553 4.324-5.145 8.145-4.84 12.73.004.067.015.134.022.202.337-4.036 3.4-7.544 4.818-11.463.632-1.8.904-3.7.798-5.587a14.13 14.13 0 0 1-.798 4.119zm-38.67 91.454a2.37 2.37 0 0 1-1.492 1.01c-2.187.232-1.816-3.696-3.574-5.018l.114 1.57c1.622 1.406 1.324 5.14 3.46 4.915a2.37 2.37 0 0 0 1.492-1.01c1.946-2.444 2.136-5.534 2.085-8.744-.05 2.675-.438 5.207-2.085 7.276zm-5.53 2.794c-.83 2.138-2.984 3.948-5.25 3.6q-.4-2.565-.778-5.13a14.82 14.82 0 0 1-5.16 3.297l-.272 1.573a14.85 14.85 0 0 0 5.432-3.402q.4 2.565.778 5.13c2.265.358 4.42-1.453 5.25-3.6.515-1.5.72-3.07.603-4.642a9.87 9.87 0 0 1-.603 3.174zm7.742-18.767a26.27 26.27 0 0 0-.198 4.157 21.47 21.47 0 0 1 .198-2.689c.815-5.606 4.744-10.74 4.4-16.306-.316 5-3.648 9.728-4.4 14.838z" class="H"/><path d="M738.995 205.842v98.184c0 5.182-4.998 9.396-11.17 9.396H491.42c-6.17 0-11.17-4.213-11.17-9.396v-98.184c0-5.19 4.998-10.482 11.17-10.482h236.405c6.17 0 11.17 5.29 11.17 10.482z" fill="#fff"/><path d="M738.995 206.53v27.39H480.25v-27.39c-.001-2.963 1.176-5.804 3.27-7.9s4.936-3.27 7.9-3.27h236.405c2.963-.001 5.804 1.176 7.9 3.27s3.27 4.936 3.27 7.9z" class="D H"/><g fill="#fff"><circle cx="494.441" cy="214.64" r="7.469"/><circle cx="516.172" cy="214.64" r="7.469"/><circle cx="537.902" cy="214.64" r="7.469"/></g><g class="D"><circle cx="688.036" cy="273.039" r="29.199"/><use xlink:href="#E"/><use xlink:href="#E" y="10.593" class="H"/><use xlink:href="#E" y="21.187" class="H"/><use xlink:href="#E" y="31.781" class="H"/><path d="M644.568 451.647s-8.676-1.992-14.355 3.852c0 0 3.655 3.3 12.24-.353zm.946-.073s5.13 7.275 1.873 14.744c0 0-4.438-2.132-4.3-11.46zm5.786-10.986s-3.076-6.667-17.713 1.395c0 0 1.58 4.452 7.802 4.518s8.047-2.63 9.912-5.912z"/><path d="M652.237 440.185s7.335-.34 6.922 16.364c0 0-4.68.648-7.604-4.843s-1.372-8.354.682-11.52zm5.133-13.005s-3.33-11.618-18.724-4.546c0 0 2.692 10.635 16.945 8.303zm5.7-16.65s-6.948-11.978-21.345-2.256c0 0 4.072 11.08 19.9 6.27zm2.73-16.027s-8.298-11.13-22.57-1.516c0 0 7.916 9.8 22.388 4.205zm2.446-15.576s-8.383-11.605-22.062-2.07c0 0 9.64 10.397 21.9 4.64zm.114-13.97s-8.64-14.793-21.444-6.02c0 0 9.474 12.853 21.264 8.7zm-1.13-16.404s-9.23-14.716-21.764-4.75c0 0 11.228 12.97 21.592 7.323zm-2.416-14.757s-11.158-13.994-22.035-9.438c0 0 11.6 14.847 22.308 12.98zm-3.284-14.052s-12.832-17.072-21.262-12.235c0 0 9.4 13.2 22.06 15.342zm-5.003-16.384s-11.28-14.005-20.388-11.328c0 0 9.5 14.38 21.744 15.556zm-4.497-15.3s-12.6-13.532-18.596-11.703c0 0 8.764 14.684 18.992 14.55zm-4.453-14.16s-10.564-15.862-16.957-15.117c0 0 6.113 13.92 16.855 16.637zM643 254.897s-9.456-12.253-14.985-12.596c0 0 7.04 15.984 15.152 16.396zm-2.63-12.62l-8.264-24.753s-1.958 21.742 9.222 29.306zm-2.226-26.836s-.287-20.223.876-21.8c0 0-8.2 16.248-1.405 30.682zm19.636 211.496s10.677-5.663 16.267 10.327c0 0-9.526 5.442-17.737-6.44z"/><path d="M663.44 409.905s12.956-4.9 17.965 11.744c0 0-10.16 6.012-19.384-7.72zm2.86-14.398s9.7-9.92 22.57 1.516c0 0-9.157 8.665-22.75 1.174zm2.252-16.56s9.86-10.38 22.14.9c0 0-10.942 9.015-22.313 1.673zm-.217-13.59s7.463-15.42 20.9-7.67c0 0-8.446 13.55-20.522 10.337zm-1.905-16.937s7.44-15.697 21.057-7.272c0 0-9.628 14.198-20.583 9.807zm-2.976-14.632s3.707-17.5 15.473-18.3c0 0-3.73 18.475-14.13 21.598zm-2.224-14.034s2.408-21.22 12.127-21.324c0 0-1.412 16.143-11.24 24.407zm-5.666-17.07s4.074-17.516 13.44-19.062c0 0-2.297 17.075-12.823 23.46zm-4.637-14.58s1.337-18.442 7.155-20.774c0 0 2.375 16.935-5.68 23.24zm-3.767-14.45s2.066-18.946 8.083-21.23c0 0 .988 15.17-7.292 22.532zm-5.088-17.3s1.073-15.44 5.483-18.792c0 0 3.007 17.205-3.515 22.046zm-1.168-14.804l5.78-25.448s4.095 21.443-6.284 30.073zm.924-25.615s11.57-16.6 11.485-18.538c0 0-2.322 18.046-16.03 26.2zm-.878-5.188S652.423 186.85 657 185.16c0 0-14.5 6.2-16.82 24.83z"/></g><g class="E"><path d="M643.2 258.844l.685-.16c-6.474-27.588-7.384-44.982-2.56-48.977l-.45-.54c-5.112 4.235-4.308 21.414 2.325 49.68z"/><path d="M661.776 323.65l1.016-.285-2.32-7.658c-7.204-22.145-13.223-42.7-16.912-58.42l-.835-.492c3.696 15.748 9.53 37.065 16.744 59.238a195.15 195.15 0 0 1 2.308 7.616z"/><path d="M630.868 471.05c.145-.14 14.596-14.366 25.696-39.57a152.54 152.54 0 0 0 12.223-46.487c1.99-20.056-.72-42.783-6.575-63.653l-.847.866c13.146 46.843 4.07 85.618-6.062 108.65-10.986 24.972-25.272 39.046-25.415 39.185z"/></g><path d="M1092.824 778.988l-27.672-40.118s-.517-9.933-2.328-12.255-.388-7.482-.388-7.482 1.94-2.838.26-3.096-.26-6.58-.26-6.58l-.13-10.062s1.552-9.675.26-11.997c-.773-1.282-.722-2.897.13-4.128 0 0 1.552-5.547 0-6.966s-1.164-10.062-.776-16.9-2.715-10.707-2.715-11.74-10.215-11.094-10.215-11.997-6.465-4.644-10.345-5.676-5.82-1.806-5.69-2.322-6.077-2.58-6.077-2.58-5.43-.387-7.5-3.096c-2.04-2.67-8.396-3.493-8.575-3.516l-.12-.54q-.06-.292-.117-.583a29.44 29.44 0 0 0 1.351-2.528q.184-.4.356-.787c2.274.016 4.497-.673 6.363-1.973a8.66 8.66 0 0 0 3.099-6.187c.11-2.384-.412-4.756-1.512-6.874-1.135-2.323-2.798-4.73-2.223-7.25.25-1.09.9-2.043 1.234-3.11.5-2.08.168-4.273-.928-6.1-.98-1.874-2.344-3.52-3.432-5.335a20.92 20.92 0 0 1-2.73-7.546 11.71 11.71 0 0 0-1.01-4.107 7.62 7.62 0 0 0-2.267-2.29 22.66 22.66 0 0 0-13.899-4.214c-3.52.122-7.028 1.07-10.524.64-2.09-.366-4.144-.904-6.144-1.608-4.337-1.282-9.34-1.81-13.116.672-3.844 2.528-5.28 7.363-7.84 11.182-2.263 3.378-5.577 6.21-7.302 9.787.02-.07.037-.14.058-.208-.423.828-.747 1.703-.964 2.606-.66 2.8-.11 5.75.572 8.555.352 1.446.834 3.016 2.09 3.82 1.282.822 3.03.622 4.52.887l-.173.737a29.54 29.54 0 0 0 20.501 34.453l.008.783c-.005.74-.05 1.48-.136 2.217h-.001v-.002s-13-2.672-16.49-.866-10.345 3.225-11.38 4.257-3.62.258-5.948 6.32-2.586 12.255-5.56 15.093-4.526 4.773-4.655 6.837.388 2.58-.776 3.225-2.845 3.354-2.328 4.386c0 0 .647 2.58-1.422 3.87a4.31 4.31 0 0 0-1.81 3.87c0 0-.776 2.838-2.586 3.483s-2.974 4.902-2.974 4.902l-5.865 6.74-11.622-12.853c-1.814-2.003-4.906-2.162-6.916-.356l-5.705 5.133a11.26 11.26 0 0 0-5.711 3.398 14.85 14.85 0 0 0-2.959 4.403l-3.126 2.813a7.93 7.93 0 0 0-.801 8.766l7.445 8.235.046.07c-2.642.227-5.152 1.25-7.2 2.933-11.118 9.802-11.25 18.835-9.566 22.96s15.773 19.996 15.773 19.996 8.185 10.643 20.007 16.303l-.016.017-.09.09c-.234.248-.465.52-.693.81l-.2.244c-.06.082-.12.167-.18.252l-.212.31q-.083.125-.164.255c-.075.12-.15.243-.223.37l-.143.247c-.1.162-.177.33-.264.5l-.085.165c-.1.226-.217.462-.32.705-.036.085-.07.174-.106.26l-.2.513-.117.332q-.086.248-.166.506l-.11.363c-.054.184-.104.375-.154.566l-.09.35q-.108.45-.202.925c-.023.12-.043.245-.065.367l-.112.665-.064.466-.08.644-.05.49-.057.734-.03.453a34.27 34.27 0 0 0-.046 1.247c-.26 15.093.625 17.287.625 17.287s1.827 4.806 6.862 5.15c.74.052 1.482.01 2.21-.12 6.723-1.16 22.5-3.87 28.058-2.837 3.344.62 9.53-.298 13.938-1.13q.606-.114 1.162-.224l.805 2.565 2.56-.7 2.17 1.254 1.37.788c2.554 8.653 12.9 5.7 12.9 5.7l2.46 1.42 24.955.642s5.357 3.228 8.833 4.24c.4.126.83.217 1.253.275a57.33 57.33 0 0 0 6.955.132l3.4-.132-.616-14.36c9.536-.395 17.995-.994 23.115-1.893 13.325-2.34 18.885-14.46 20.934-20.935a61.01 61.01 0 0 1 1.307 8.036c.544 2.363 1.235 4.69 2.07 6.966.73 1.832 1.684 3.566 2.845 5.16 9.827-3.354 3.88-8.385 1.8-10.578s1.422-4 1.422-4 2.715-1.806 2.457-3.483-.388-3.483 8.405-3.354 8.405-7.224 8.405-7.224zm-136.54-82.368c.112.738 1.338 8.684 2.448 10.775.3 1.394.408 2.826.29 4.25-5.208-.415-10.636-.637-10.636-.637.156.19.252.42.278.663l-.818-.184-1.19-.292 9.602-14.596zm-19.016 30.252l9.776 1.548a29.89 29.89 0 0 0-.467 4.259c.027.134.203.297.493.482a11.79 11.79 0 0 0-.175 2.134c.143.713 4.36 2.255 9.196 3.535-.066.26-.132.508-.198.74h0c-4.27-2.248-10.997-3.297-11.773-4.965s-23.663-9.667-23.663-9.667-.837-.443-2.28-1.14l6.03 1.14 1.656-.168a90.24 90.24 0 0 0 11.405 2.102z" transform="translate(-28 -62.644)" fill="url(#B)"/><use xlink:href="#F" class="G"/><use xlink:href="#F" opacity=".05"/><path d="M872.488 746.047s1.81 4.775 6.8 5.117c.733.05 1.47.01 2.19-.12 6.663-1.153 22.3-3.845 27.808-2.818 3.314.615 9.446-.296 13.814-1.123 2.903-.546 5.025-1.057 5.025-1.057s-5.125-17.043-5.767-17.558-23.068-13.967-23.068-13.967l-17.812-1.28c-2.388.358-4.546 1.625-6.02 3.537-1.876 2.268-3.483 5.994-3.59 12.095-.258 14.994.62 17.174.62 17.174z" class="C"/><path d="M872.488 746.047s1.81 4.775 6.8 5.117a73.23 73.23 0 0 1-4.825-7.039l.096-12.43a21.9 21.9 0 0 1 6.974-18.45l-.054-.004s-9.354.638-9.612 15.632.62 17.174.62 17.174z" opacity=".05"/><path d="M949.53 718.877l16.532-12.94 26.016-25.632-7.05-.32c-1.053.673-4 2.787-4.118 5.356-.127 3.133-7.032.22-10.62 2s-21.145 24.263-24.22 24.117-5.5-1.56-6.793.62c-.027.05-.062.096-.092.142zm-74.07-2.1q.882.427 1.792.82c12.56 5.382 28.066 16.66 29.22 18.712.704 1.246 9.692 6.705 16.632 10.796 2.903-.546 5.025-1.057 5.025-1.057s-5.125-17.043-5.767-17.558-23.068-13.967-23.068-13.967l-17.812-1.28a9.35 9.35 0 0 0-6.02 3.537z" class="B"/><path d="M840.6 680.047c1.665 4.102 15.632 19.865 15.632 19.865s8.843 11.534 21.403 16.916 28.066 16.66 29.22 18.712c.742 1.32 10.75 7.347 17.804 11.488l1.58.923 3.5 2.03 1.85 1.065 8.566-6.913 8.48-7.055c.127-.384 1.792-4.744 1.407-4.998-.2-.135-1.08-1.907-2.7-3.964-1.72-2.288-3.957-4.136-6.528-5.394-5.894-2.69-8.458-8.82-8.458-8.82s-.56-.408-1.41-.946c-1.745-1.205-3.7-2.076-5.763-2.568-2.822-.354-8.074-6.12-8.074-6.12s-3.59-2.307-4.998-5.252c-1.346-2.8-21.222-16.463-23.064-17.724l59.714 38.354 16.532-12.94 26.016-25.632-8.585-.388c-12.645-.546-35.1-1.403-37.935-.765a21.62 21.62 0 0 1-7.051.461c0 0-6.397.288-10.63-1.945s-10.9-3.276-11.668-4.933-23.452-9.604-23.452-9.604-30.884-16.4-41.906-6.663-11.15 18.712-9.48 22.8z" class="G"/><path d="M940.176 585.985l3.972 13.2 5.125 29.73 18.84 1.284 10.896-18.07s3.39-12.014 5.828-23.637c2.157-10.284 3.564-20.26 1.22-21.345-2.08-.96-3.45-4.425-4.337-8.147-.112-.46-.215-.93-.308-1.396-.628-3.153-1.045-6.345-1.25-9.554 0 0-39.473-2.05-33.963 14.225a25.9 25.9 0 0 1 1.488 8.654 20.17 20.17 0 0 1-.135 2.203 18.45 18.45 0 0 1-7.374 12.853z" class="K"/><path d="M931.972 583.805l1.41 22.426 3.203 19.096 3.59 8.843 3.203 48.38s30.9 3.572 38.415-.065c.54-.226 1-.592 1.36-1.06 9.077-13.706 6.1-53.405 6.1-53.405l3.46-25.632-2.307-13.302-9.865-1.05s-.97 1.192-2.368 3.04c-3.798 5.017-10.788 14.882-10.32 19 .638 5.64-.77 11.407-2.95 12.303s-3.972 2.438-4.356.9-.77-1.922-.384-4.102-1.668-8.843-1.668-8.843-3.46-7.816-3.203-11.15-.384-7.178-1.41-8.074-2.434-1.795-1.28-5.894-5.056-12.084-5.056-12.084z" fill="#e3e8f4"/><path d="M972.79 639.814l1.284 38.32 7.4 4.102c.54-.226 1-.592 1.36-1.06 9.077-13.706 6.1-53.405 6.1-53.405l3.46-25.632-2.307-13.302-5.575-.592c2.157-10.284 3.564-20.26 1.22-21.345-2.08-.96-3.45-4.425-4.337-8.147h0l-3.995 27.112a63.97 63.97 0 0 0 .454 4.963c.163 1.598.054 3.213-.323 4.775-.9 2.307-.258 6.41-.258 6.41-2.31 4.07-3.464 11.61-4.03 18.892-.75 9.684-.457 18.912-.457 18.912z" class="B"/><path d="M981.52 558.14s6.457.803 8.507 3.494 7.433 3.076 7.433 3.076 6.15 2.05 6.023 2.563 1.794 1.282 5.64 2.307 10.252 4.742 10.252 5.64 10.124 10.893 10.124 11.918 3.076 4.87 2.69 11.662-.77 15.378.77 16.788 0 6.92 0 6.92c-.844 1.223-.894 2.827-.128 4.1 1.282 2.307-.256 11.918-.256 11.918l.128 9.996s-1.4 6.28.256 6.536-.256 3.076-.256 3.076-1.4 5.126.384 7.433 2.307 12.175 2.307 12.175l27.425 39.856s.384 7.305-8.33 7.177-8.586 1.666-8.33 3.332-2.435 3.46-2.435 3.46-3.46 1.794-1.4 3.973 7.946 7.177-1.794 10.51c-1.15-1.584-2.097-3.306-2.82-5.126a57.79 57.79 0 0 1-2.05-6.92c0 0-.897-9.74-2.69-11.02s-1.538-7.433-1.538-7.433 2.563-4.998-1.025-7.048l-55.62-30.885-1.282-38.318s-.897-28.322 4.485-37.805c0 0-.64-4.1.256-6.408s-.128-9.74-.128-9.74z" class="C"/><use xlink:href="#G" class="B"/><use xlink:href="#G" x="-0.385" y="-0.386" class="C"/><path d="M946.197 562.275a25.9 25.9 0 0 1 1.488 8.654 29.39 29.39 0 0 0 33.725-13.325c-.628-3.153-1.045-6.345-1.25-9.554 0 0-39.473-2.05-33.963 14.225z" class="B"/><path d="M926.72 542.025c.008 15.602 12.23 28.466 27.8 29.275s29.068-10.722 30.69-26.24-9.185-29.59-24.596-32.023-30.03 7.623-33.267 22.885c-.425 2.006-.64 4.05-.638 6.1z" class="K"/><path d="M907.88 609.948l-7.048 2.18s.64 2.563-1.4 3.845a4.29 4.29 0 0 0-1.794 3.845s-.77 2.82-2.563 3.46-2.948 4.87-2.948 4.87l-5.895 6.792s-2.18 1.794-1.794 2.69-2.307 1.153-2.307 1.153l1.4 22.81 12.175 2.307 7.56-.77 6.15-2.307 5.382-3.204 2.435-6.28L928 634.938z" class="C"/><path d="M883.915 640.577s-15.635-22.555-27.297-10.38 4.742 31.9 8.586 31.27 22.17-1.666 22.17-1.666z" class="K"/><rect x="858.905" y="672.364" width="81.833" height="63.539" rx="1.544" transform="matrix(.890723 .454547 -.454547 .890723 390.39207 -394.70976)" class="C"/><path d="M853.078 602.692l61.267 31.265-23.56 46.167-61.267-31.265z" class="D"/><g fill="#e6e8ec"><circle cx="838.908" cy="624.556" r="1.128"/><circle cx="905.225" cy="658.536" r="1.86"/></g><path d="M873.79 645.318c-.127 16.916 34.86 20.503 34.86 20.503l12.94 2.053 1.668-16.532s-1.834-.273-4.125-.807c-3.387-.788-7.774-2.153-8.693-4.064-1.538-3.203-36.524-18.07-36.65-1.153z" class="K"/><path d="M927.358 535.924c.805.062 1.563.4 2.145.96.992 1.05 1.046 2.9 2.334 3.556a2.6 2.6 0 0 0 1.53.177c3.406-.48 5.38-4.33 8.65-5.386 1.91-.49 3.933-.318 5.732.492a4.27 4.27 0 0 1 1.899 1.219c1.096 1.42.327 3.502.834 5.217.704 2.38 3.545 3.326 6.005 3.637s5.233.484 6.874 2.34a6.23 6.23 0 0 1 1.223 4.96c-.15.6-.156 1.23-.015 1.834.677 1.922 4.002 1.638 4.87.12.634-1.103.442-2.018 1.938-2.326a6.37 6.37 0 0 1 3.137.542c2.61.898 5.358 1.32 8.116 1.246a29.35 29.35 0 0 0-33.469-41.01 29.35 29.35 0 0 0-21.805 22.421z" class="B"/><path d="M964.57 554.165c-.14-.605-.134-1.234.015-1.836a6.23 6.23 0 0 0-1.22-4.958c-1.643-1.86-4.415-2.033-6.877-2.344s-5.3-1.254-6.005-3.633c-.508-1.715.26-3.802-.834-5.217a4.23 4.23 0 0 0-1.897-1.219c-1.8-.81-3.822-.985-5.734-.495-3.272 1.058-5.245 4.907-8.65 5.388-.516.096-1.05.034-1.53-.177-1.29-.646-1.344-2.506-2.334-3.554-1.556-1.648-4.508-.583-6.414-1.808-1.244-.8-1.72-2.358-2.07-3.795-.677-2.785-1.22-5.708-.567-8.5 1.115-4.767 5.373-8.035 8.094-12.106 2.536-3.793 3.96-8.597 7.77-11.11 3.743-2.467 8.7-1.942 13-.668a38.11 38.11 0 0 0 6.09 1.597c3.464.426 6.942-.515 10.43-.636a22.42 22.42 0 0 1 13.775 4.187 7.56 7.56 0 0 1 2.247 2.275c.578 1.288.917 2.67 1 4.08.41 2.65 1.33 5.195 2.705 7.497 1.08 1.802 2.43 3.438 3.402 5.3a8.15 8.15 0 0 1 .92 6.07c-.33 1.06-.976 2.008-1.223 3.09-.57 2.503 1.078 4.894 2.203 7.2 1.1 2.106 1.606 4.46 1.498 6.83a8.61 8.61 0 0 1-3.071 6.146c-1.905 1.323-4.178 2.012-6.497 1.97-2.812.095-5.617-.327-8.277-1.243a6.41 6.41 0 0 0-3.137-.542c-1.496.307-1.304 1.223-1.938 2.327-.87 1.518-4.193 1.803-4.873-.118z" class="C"/><path d="M948.76 719.646l16.532-12.94 26.016-25.632-8.585-.388c-1.008.9-1.653 2.154-1.815 3.502-.127 3.133-7.032.22-10.62 2.01s-21.145 24.263-24.22 24.117-5.51-1.56-6.793.62c-.027.05-.062.096-.092.142-.51.585-1.195.992-1.953 1.16z" class="B"/><path d="M915.44 718.75l9.612 30.68 51.518-14.148a33.7 33.7 0 0 0 13.979-3.729 42.35 42.35 0 0 1 24.137-5.263c5.135.48 10.844-1.736 15.582-10.49 0 0 10.765-31.78-16.405-40.88s-28.465 4.837-28.465 4.837-.138.077-.37.227c-1.053.673-4 2.787-4.118 5.356-.127 3.133-7.032.22-10.62 2.01s-21.145 24.263-24.22 24.117-5.51-1.56-6.793.62c-.027.05-.062.096-.092.142-.95 1.307-3.802 1.61-5.7 1.665-1.03.03-1.776-.015-1.776-.015l-.242.073-1.972.588z" class="G"/><path d="M917.59 667.24l4.002.634 1.668-16.532-4.125-.807c.607 2.307-.77 11.222-1.546 16.705z" class="B"/><use xlink:href="#H" class="B"/><use xlink:href="#H" x="-0.315" y="-2.599" class="C"/><path d="M929.503 714.54l16.928 20.48c.042-.034.078-.074.108-.12.127-.384 1.792-4.744 1.407-4.998s-3.33-6.667-9.227-9.358a17.52 17.52 0 0 1-7.243-6.594z" class="B"/><path d="M929.738 749.98l1.85 1.065 8.566-6.913 8.48-7.055c.127-.384 1.792-4.744 1.407-4.998-.2-.135-1.08-1.907-2.7-3.964-11.476-3.214-4.168 4.752-3.195 5.117 0 0-13.967-3.206-14.736 12.01-.102 1.586.008 3.18.327 4.737z" class="B"/><path d="M943.9 756.428l2.437 1.41 24.732.638c2.774 1.687 5.706 3.098 8.754 4.214a7.79 7.79 0 0 0 1.242.273c2.293.183 4.595.227 6.893.13l3.36-.13s-1.17-31.19-2.053-34.475c-.423-1.57-2.495-1.223-4.54-.438a30.05 30.05 0 0 0-4.429 2.241c0 0-10.507 1.02-12.176 1.922s-6.405-.52-9.354 0-8.2-3.468-8.2-3.468c-14.356-4.74-6.282 4.102-5.256 4.487 0 0-13.967-3.206-14.736 12.01s13.326 11.184 13.326 11.184z" class="C"/><use xlink:href="#I" fill="#565387"/><use xlink:href="#I" class="B"/><path d="M975.416 745.24c1.703 6.232 1.684 13.222 4.398 17.45a7.79 7.79 0 0 0 1.242.273c2.293.183 4.595.227 6.893.13l3.36-.13s-1.17-31.19-2.053-34.475c-.423-1.57-2.495-1.223-4.54-.438a30.05 30.05 0 0 0-4.429 2.241s-7.047 6.966-4.87 14.948z" opacity=".05"/><path d="M890.09 682.01s12.285 3.993 22.695 18.156z" class="B"/><g class="B"><path d="M989.918 528.232l-.074.272a9.06 9.06 0 0 1-.427 1.069c.126-.46.294-.9.5-1.34zm-69.506-6.216c.215-.898.536-1.767.955-2.6l-.186.667c-.653 2.8-.1 5.714.567 8.5.35 1.436.826 2.996 2.07 3.795 1.907 1.225 4.86.16 6.415 1.808 1 1.05 1.045 2.908 2.334 3.554a2.6 2.6 0 0 0 1.53.177c3.405-.48 5.378-4.33 8.65-5.388 1.912-.5 3.934-.315 5.734.495a4.23 4.23 0 0 1 1.897 1.219c1.094 1.415.326 3.502.834 5.217.705 2.38 3.543 3.322 6.005 3.633s5.234.485 6.877 2.344a6.23 6.23 0 0 1 1.22 4.958 3.93 3.93 0 0 0-.015 1.836c.68 1.92 4.002 1.636 4.873.118.634-1.105.442-2.02 1.938-2.327a6.41 6.41 0 0 1 3.137.542c2.66.916 5.465 1.337 8.277 1.243a11.02 11.02 0 0 0 6.497-1.97c.825-.66 1.504-1.486 1.994-2.423a8.2 8.2 0 0 1-2.763 4.345 11.04 11.04 0 0 1-6.497 1.97 23.03 23.03 0 0 1-8.277-1.243 6.41 6.41 0 0 0-3.137-.542c-1.496.307-1.304 1.223-1.938 2.327-.87 1.518-4.193 1.803-4.873-.118a3.94 3.94 0 0 1 .015-1.836 6.23 6.23 0 0 0-1.22-4.958c-1.643-1.86-4.415-2.033-6.877-2.344s-5.3-1.254-6.005-3.633c-.508-1.715.26-3.802-.834-5.217a4.23 4.23 0 0 0-1.897-1.219c-1.8-.8-3.822-.985-5.734-.495-3.272 1.058-5.245 4.907-8.65 5.388a2.61 2.61 0 0 1-1.53-.177c-1.3-.646-1.344-2.506-2.334-3.554-1.556-1.648-4.508-.583-6.415-1.808-1.244-.8-1.72-2.358-2.07-3.795-.677-2.785-1.22-5.708-.567-8.5z"/><path d="M991.904 624.588c-2.346 3.17-5.027 6.1-7.105 9.454s-3.545 7.267-3.114 11.188c2.15-2.205 3.134-5.253 4.5-8.018 2.296-4.684 5.728-8.655 8.62-12.96.554-.825 4.093-5.575 2.302-5.802-1.48-.188-4.393 5.058-5.194 6.14z"/></g><ellipse cx="311.5" cy="523.856" rx="121" ry="114" fill="#f1f1f1"/><path d="M495.12 663.575L395.02 633.73a152.88 152.88 0 0 1-66.52 15.125c-78.3 0-142-58.318-142-130s63.7-130 142-130 142 58.318 142 130c0 36.187-16.613 70.913-45.625 95.475zm-100.278-31.983l.375.11 88.662 26.434-62.29-43.667 1.007-.837c29.173-24.226 45.904-58.77 45.904-94.776 0-70.58-62.804-128-140-128s-140 57.42-140 128 62.804 128 140 128c22.857.035 45.422-5.126 65.992-15.092z" fill="#2f2e41"/><g class="D"><circle cx="281" cy="526.356" r="11"/><circle cx="313" cy="526.356" r="11"/><circle cx="345" cy="526.356" r="11"/></g><path d="M291.73 466.552c6.89 4.616 17.335 2.418 17.335 2.418s15.78-7.473 20.446-7.473 16-4.616 16-4.616l-1.54-12.488c7.182 5.597 15.163 3.666 19.096 3.257 4.223-.44 26.775-13.847 28.945-14.726a5.74 5.74 0 0 0 1.978-1.996h.004a50.81 50.81 0 0 0 3.818-6.976l-.003.001c1.414-1.243 2.445-2.242 2.372-2.458.302-1.284.766-2.524 1.38-3.69 2.424-.35 4.75-1.188 6.842-2.464.35-.284.667-.606.947-.958.86-1.107 1.3-2.476 1.276-3.877 0 0 22.002-22.2 19.113-31.43s7.112-9.45 7.112-9.45 15.335-6.594 17.468-10.55c1.316-2.435 12.814-7.776 21.473-11.53q.54-.234 1.064-.46c3.366 7.363 20.418 1.698 23.778-1.418 3.556-3.297 14-4.835 14-4.835s.444-43.08 3.778-48.575c1.582-2.607 1.965-11.113 1.925-19.33q-.002-.438-.005-.875c4.67-.9 15.773-3.02 20.932-3.534 3.27-.325 6.675-2.362 9.288-4.343l.308.387a6.42 6.42 0 0 0 2.843.468 4.4 4.4 0 0 0 2.49-.468c2-1.1 9.334-3.297 12-4.396s-.444-9.012-2.445-10.55-3.334-3.517-2.222-4.396-2.667-3.077-4.89-3.517-8.9-3.517-8.9-3.517-2.445-5.055-6.445-5.055-9.334-3.956-9.334-3.956c-.222-1.758-4.445-1.978-4.445-1.978s-16-12.31-18.668-10.77-10-2.418-10-2.418-8.995 1.007-11.112-.65v-.01a2.53 2.53 0 0 0-.534-1.492c-.48-1.485-2.803-3.525-5.057-5.223.17-1.05.257-2.112.257-3.175 0-.462-.018-.923-.05-1.376-.005-.076-.015-.15-.02-.227q.157-1.548.314-3.095c.024-1.02.3-2.017.777-2.912.375-.578.927-1.035 1.345-1.587.1-.132.2-.27.273-.41.023-.038.043-.077.065-.116q.09-.163.167-.332l.05-.114a5.01 5.01 0 0 0 .287-.936c.005-.025.01-.05.014-.076q.042-.218.067-.44l.007-.06c.09-1.28-.08-2.563-.5-3.774-.667-2.075-1.71-4.084-1.82-6.25.053-1.075.015-2.153-.113-3.22-.535-2.4-3.008-3.933-5.384-4.928-3.285-1.377-4.942-2.882-7.582-4.93-2.243-1.74-5.943-.866-8.767-.685-6.447.414-12.814 2.354-18.877 4.363-2.393.645-4.634 1.758-6.595 3.274-1.237 1.05-2.086 2.484-2.414 4.072h0v.004c-.065.366-.09.74-.073 1.1.001.033.005.066.007.1q.014.213.048.425l.022.14a4.53 4.53 0 0 0 .123.503l.003.013c.255.8.73 1.545 1.006 2.35a5.11 5.11 0 0 1 .151.543c.004.02.008.04.012.06.037.176.068.353.09.53v-.001c.245 2-.492 4.086-.82 6.123-.046.288-.077.58-.1.877v-.001l-.001.01a10.48 10.48 0 0 0 .307 3.509l.01.04a8.86 8.86 0 0 0 .129.417l.058.18c.04.118.088.232.134.348l.095.23c.045.102.094.203.143.303l.13.25c.05.09.1.18.154.27q.078.13.162.257a6.56 6.56 0 0 0 .166.24 6.41 6.41 0 0 0 .196.254c.058.072.116.143.177.213a6.08 6.08 0 0 0 .233.246c.06.062.12.125.185.184a5.83 5.83 0 0 0 .277.237c.062.05.123.104.187.153.1.083.228.16.345.235.056.036.11.075.167.1a5.8 5.8 0 0 0 .56.295c1.276.582 2.883.79 3.656 1.9a2.5 2.5 0 0 1 .374.875l-.006.227v.193a21.13 21.13 0 0 0 .111 1.925c-.005.348.014.696.058 1.042.04.26.112.515.218.756.9 4.428 3.276 8.42 6.74 11.32l.228 1.182c-1.954 1.48-4.138 2.624-6.466 3.39-5.334 1.56-12.9 8.765-12.9 8.765l-4.654 30.332c-.902 3.297-1.57 16.045-1.57 16.045s-.89 5.275-2.222 7.913c-.943 1.86-.774 9.846 1.86 14.7-.432.954-.983 1.85-1.64 2.664-5.334 6.154-21.335 5.934-26.67 5.934-4.914 0-6.43 2.978-6.638 3.448l-45.144 13.44c-4.445 1.943-6.89 21.136-6.89 21.136s-9.334 31.87-8.9 36.064-3.11 15.808-3.11 15.808 0 13.148-1.51 14.04c-.013.012-.028.02-.044.026-1.556.66-1.333 7.033-1.333 7.033s1.143.33 2.93.783c-.474 3.224-2.222 7.73-3.6 10.927-.692-.875-1.367-1.243-1.774-.22-1.11 2.796-17.78 22.577-22.002 22.577-2.014 0-5.338 1.648-7.525 3.873-2.396 2.444-3.414 5.583.19 7.996zm76.45-114.513c18.9 1.758 39.114-1.34 39.114-1.34s-1.556 5.517-2.89 7.715-5.112 14.726-5.112 17.364-6 25.276-7.778 26.375a6.58 6.58 0 0 0-1.933 2.796 26.23 26.23 0 0 0-1.178 3.358 16.8 16.8 0 0 0 .153 1.628l-3.984 3.62s-7.947 4.422-10.614 6.84-15.112 5.38-15.112 5.38c-3.077 1.325-6.064 2.85-8.943 4.563-3.856 2.327-7.716 5.278-8.722 8.195.435-4.912 1.146-10.83 1.62-14.593a18.73 18.73 0 0 0 .71-.029c6.227-.387 5.298-6.33 4.97-7.803-.044-.21-.08-.33-.08-.33 4.445-4.836 14.446-40.882 13.112-44.838s1.11-7.473 1.64-7.473 1.25-4.396.138-6.814 4.89-4.616 4.89-4.616zm152.76-96.966l-1.178.29-.015-.255s.444 0 1.193-.036zm-64.574-33.166a13.34 13.34 0 0 1-.549.641c-.075.08-.152.158-.228.237l-.001-1.22q.384.18.777.342zm-22.263 42.642l.08 1.237-.345 2.047zm102.132-12.284l-3.876.668c.55-.208 1.09-.434 1.614-.683a3.7 3.7 0 0 1 1.236-.336 6.74 6.74 0 0 1 1.446.31c-.14.004-.28.017-.42.04z" transform="translate(-28 -62.644)" fill="url(#C)"/><path d="M377.085 348.31s-4.466 9.24-4.248 9.896-9.598 8.507-9.598 8.507l-10.688-7.634 1.09-5.235s11.997-10.8 12.87-12.058 10.574 6.525 10.574 6.525z" class="I"/><path d="M316.124 379.583c7.416 7.198 16.14 5.017 20.286 4.58s26.28-13.742 28.41-14.614c.8-.49 1.468-1.17 1.94-1.98h.004a50.61 50.61 0 0 0 3.747-6.923c-.148.04-7.403 2.11-9.235-.004 0 0-3.054-3.743-3.708-3.743s-.052-6.57-.052-6.57-7.8 4.39-10.418 6.788-14.833 5.34-14.833 5.34c-3.022 1.316-5.954 2.83-8.777 4.528-5.785 3.53-11.583 8.507-7.364 12.6z" class="C"/><path d="M316.124 379.583c7.416 7.198 16.14 5.017 20.286 4.58s26.28-13.742 28.41-14.614c.8-.49 1.468-1.17 1.94-1.98-2.583-1.54-19.444 9.18-24.164 11.142s-16.656.873-23.418-1.963c-3.377-1.413.044-5.763 4.3-9.763-5.785 3.53-11.582 8.507-7.364 12.6z" class="B"/><path d="M316.997 356.898s-3.107 23.34-2.317 26.393-19.496-10.47-19.496-10.47 7.1-14.625 5.017-17.986 16.796 2.062 16.796 2.062z" class="I"/><path d="M297.583 357.334s12.65 3.708 19.63 3.272c6.112-.384 5.2-6.282 4.877-7.743l-.08-.327c4.363-4.8 14.178-40.57 12.87-44.498s1.09-7.416 1.6-7.416 1.226-4.363.135-6.762 4.8-4.58 4.8-4.58c18.54 1.745 38.4-1.33 38.4-1.33s-1.527 5.475-2.836 7.656-5.017 14.614-5.017 17.232-5.89 25.084-7.634 26.175a6.53 6.53 0 0 0-1.898 2.775c-.46 1.084-.846 2.197-1.156 3.333.654 14.614 17.232 8.943 19.63 6.98 1.435-1.172 2.242-2.947 2.18-4.8 0 0 21.594-22.03 18.76-31.192s6.98-9.38 6.98-9.38 15.05-6.544 17.145-10.47c1.29-2.417 12.577-7.717 21.075-11.443l9.55-4.044-6.326-22.685-22.03-8.29-30.132-4.144-32.034 4.144-47.115 14.143c-4.363 1.928-6.762 20.975-6.762 20.975s-9.16 31.628-8.725 35.8-3.054 15.688-3.054 15.688 0 13.048-1.483 13.934c-.012.012-.027.02-.044.026-1.527.654-1.31 6.98-1.31 6.98z" class="C"/><path d="M341.427 289.28c18.54 1.745 38.4-1.33 38.4-1.33 1.31-4.123 19.644-15.465 19.644-15.465-15.042-3.708-58.035 16.796-58.035 16.796z" class="B"/><g class="E"><use xlink:href="#J"/><use xlink:href="#K"/></g><use xlink:href="#J" class="B"/><use xlink:href="#K" class="B"/><path d="M266.39 402.922c6.762 4.58 17.014 2.4 17.014 2.4s15.487-7.416 20.068-7.416 15.705-4.58 15.705-4.58l-2.18-17.886s-16.988-.436-17.668-1.963c0 0-3.054-7.512-4.144-4.738s-17.45 22.406-21.594 22.406c-1.976 0-5.24 1.636-7.386 3.843-2.35 2.426-3.35 5.54.188 7.935z" class="C"/><path d="M325.067 274s14.178 8.943 10.252 10.906S325.067 274 325.067 274zm-5.89 17.242s12.215 11.596 7.634 11.906-7.634-11.906-7.634-11.906zM306.1 328.105s6.2 11.657 3.864 13.68-3.864-13.68-3.864-13.68zm68.264 11.78c-2.18 2.18 20.722-7.198 15.487-7.634s-15.487 7.634-15.487 7.634z" class="B"/><path d="M420.17 176.3l.73-.11c2.714-.414 12.547-1.96 21.368-3.874 2.15-.467 4.236-.955 6.147-1.457 6.758-1.77 11.3-3.682 8.402-5.248-3.826-2.077-5.84-5.85-6.906-9.096l-.284-.934c-.47-1.638-.767-3.32-.88-5.02 0 0-24.648-8.725-19.85 0 2.356 4.28.772 7.774-1.453 10.22-1.526 1.617-3.323 2.956-5.31 3.957z" class="I"/><path d="M446.563 169.528s-8.817 6.326-17.823 1.09-20.785 46.243-20.785 46.243l-12.215 30.1s-7.914 6.544 1.933 9.38 31.694-2.836 37.238 5.453 16.05 9.598 17.123 9.598 5.23-31.192 5.23-31.192l1.078-45.152z" class="B"/><path d="M398.11 254.597c9.846 2.836 31.694-2.836 37.238 5.453a21.3 21.3 0 0 0 9.384 7.552 24.57 24.57 0 0 0 7.739 2.046c.144 0 .35-.57.59-1.562 1.536-6.313 4.642-29.63 4.642-29.63l1.078-45.152-11.78-25.52c-1.394.925-2.905 1.66-4.493 2.186-4.387 1.625-9.27 1.224-13.332-1.095-2.644-1.536-5.523 1.8-8.276 7.307-6.627 13.236-12.507 38.935-12.507 38.935l-12.215 30.1c-.3.25-.567.515-.83.794-1.736 1.828-4.986 6.356 2.76 8.585z" fill="#f3f5f9"/><path d="M445.023 256.115c-.486 3.81-.583 7.658-.292 11.487.354 5.445 1.04 10.863 2.05 16.224.06.337.15.668.266 1l9.55-4.044-3.538-12.686c1.536-6.313 4.642-29.63 4.642-29.63l1.078-45.152-10.365-22.454c6.758-1.77 11.3-3.682 8.402-5.248-4.197-2.277-6.217-6.6-7.19-10.03a36.54 36.54 0 0 1-6.199 6.67l-.135.113-.785 7.613-.24 2.338-.502 4.855s2.4 57.367 4.144 60.64.873 9.598-.654 17.014c-.087.42-.16.85-.23 1.3z" class="B"/><path d="M446.127 253.942c-1.527 7.416-.218 19.63 1.527 29.01s20.286 3.272 23.776 0 13.742-4.8 13.742-4.8.436-42.753 3.708-48.206c1.553-2.587 1.928-11.028 1.89-19.182-.03-7.325-.393-14.414-.528-16.818l-.052-.864s14.178-23.994 13.96-25.74-4.363-1.963-4.363-1.963-15.705-12.215-18.323-10.688-9.816-2.4-9.816-2.4-9.122 1.034-11.007-.724a.96.96 0 0 1-.336-.803c.214-2.792-9.297-8.756-9.59-8.94 8.014 7.21-4.947 18.323-6.417 19.54l-.135.113-1.527 14.806s2.4 57.367 4.144 60.64.872 9.598-.654 17.014z" class="F"/><circle cx="446.971" cy="191.625" r="1.091" class="E"/><use xlink:href="#L" class="B"/><circle cx="449.153" cy="226.525" r="1.091" class="B"/><circle cx="449.153" cy="226.089" r="1.091" class="E"/><use xlink:href="#L" x="-0.435" y="-0.872" class="F"/><g transform="matrix(-.99974 -.022783 .022783 -.99974 912.48201 486.53614)"><rect x="465.78" y="253.195" width="15.18" height="32.076" rx="1.699" class="C"/><rect x="465.78" y="253.195" width="15.18" height="32.076" rx="1.699" class="B"/></g><rect x="465.861" y="253.905" width="15.18" height="32.076" rx="1.699" transform="matrix(-.99974 -.02278 .02278 -.99974 912.6276 487.95743)" class="C"/><circle cx="445.857" cy="200.642" r="2.385" class="F"/><use xlink:href="#M" class="B"/><use xlink:href="#M" x="-0.436" y="-1.31" class="F"/><use xlink:href="#N" class="B"/><use xlink:href="#N" x="0.436" y="-0.87" class="F"/><path d="M409.046 219.042s10.906-2.18 13.96-6.98 23.828-8.943 21.293-3.926-21.293 21.432-21.293 21.432l-8.127 11.64-10.85-2.753-4.57-8.887z" class="I"/><path d="M434.85 231.487s-10.562 3.926-12.152 9.16 12.152-9.16 12.152-9.16zm6.478 6.096s.96 5.45-12.28 5.015zm57.15-69.8l4.8-.436s5.235 3.926 9.16 3.926 6.326 5.017 6.326 5.017 6.544 3.054 8.725 3.5 5.9 2.618 4.8 3.5.218 2.836 2.18 4.363 5.017 9.38 2.4 10.47-9.816 3.272-11.78 4.363a5.41 5.41 0 0 1-4.363 0s-11.556-15.05-17.448-12.215-13.963 2.836-13.963 2.836L483 179.78z" class="B"/><path d="M398.11 239.555a5.83 5.83 0 0 0 4.066 2.827c4.27.5 8.597.1 12.704-1.174 0 0-21.974-6.98-.816-23.955h-5.67l-1.89-.715.864-4.52 1.243-40.746-4.58-1.09-4.568 30.1c-.886 3.272-1.54 15.923-1.54 15.923s-.873 5.235-2.18 7.853c-.986 1.968-.733 10.84 2.37 15.496z" class="F"/><use xlink:href="#O" class="B"/><use xlink:href="#O" x="-0.87" class="F"/><path d="M427.442 160.772a19.85 19.85 0 0 0 22.467-4.267l-.284-.934c-.47-1.638-.767-3.32-.88-5.02 0 0-24.648-8.725-19.85 0 2.356 4.28.772 7.774-1.453 10.22z" class="B"/><path d="M415.808 141.826v.192l.11 1.91.27 1.784c1.758 8.794 9.193 15.318 18.142 15.918s17.188-4.872 20.105-13.353a17.97 17.97 0 0 0 .358-1.165c.476-1.722.717-3.5.715-5.287 0-.458-.017-.916-.048-1.365-.736-10.67-9.795-18.84-20.485-18.47s-19.165 9.14-19.166 19.836z" class="I"/><path d="M415.808 142.018a8.6 8.6 0 0 1 .109 1.911 7.39 7.39 0 0 0 .057 1.034 3.01 3.01 0 0 0 .214.75c.803 1.885 3.42 3.102 5.148 1.89a5.59 5.59 0 0 0 1.549-2.029c1.832-3.407 4.384-7.33 8.398-7.394 1.7-.03 3.32.69 4.973 1.112s3.617.47 4.85-.654c.947-.864 1.396-2.343 2.67-2.648 1.29-.3 2.443.864 3.028 2.007s1.047 2.487 2.23 3.076c.524.262 1.14.336 1.653.615 2.373 1.3 1.283 5.854 3.747 6.592a1.86 1.86 0 0 0 .236.057l.122-1.22q.334-3.324.667-6.653c-.736-10.67-9.795-18.84-20.485-18.47s-19.165 9.14-19.166 19.836z" class="B"/><path d="M451.07 112.196c2.332.988 4.76 2.51 5.285 4.89a19.33 19.33 0 0 1 .111 3.197c.11 2.15 1.133 4.143 1.787 6.202s.888 4.462-.423 6.213c-.4.548-.952 1-1.32 1.575a6.42 6.42 0 0 0-.762 2.89l-1.078 10.737c-2.77-.516-1.536-5.313-3.984-6.65-.514-.28-1.127-.356-1.652-.618-1.18-.59-1.643-1.934-2.23-3.076s-1.736-2.313-3.03-2.004c-1.27.304-1.72 1.786-2.666 2.65-1.236 1.126-3.203 1.074-4.854.652s-3.262-1.142-4.97-1.113c-4.015.068-6.567 3.988-8.4 7.395a5.55 5.55 0 0 1-1.548 2.032c-1.95 1.37-5.027-.355-5.36-2.642-.187-1.28.212-2.7-.527-3.793-.758-1.112-2.336-1.318-3.588-1.895-3.187-1.47-4.176-5.45-3.646-8.787.382-2.406 1.34-4.882.556-7.198-.27-.798-.737-1.527-.988-2.33-.7-2.245.442-4.723 2.242-6.317a18.34 18.34 0 0 1 6.473-3.249c5.95-1.994 12.2-3.92 18.528-4.33 2.772-.18 6.403-1.047 8.605.68 2.59 2.032 4.217 3.525 7.44 4.89z" class="C"/><circle cx="445.881" cy="174.393" r="1.091" class="B"/><circle cx="445.881" cy="173.957" r="1.091" class="E"/><circle cx="452.861" cy="242.885" r="1.091" class="B"/><circle cx="452.861" cy="242.449" r="1.091" class="E"/><circle cx="449.153" cy="260.989" r="1.091" class="B"/><circle cx="449.153" cy="260.553" r="1.091" class="E"/><path d="M411.663 191.625s-2.4 16.293 0 19.128 0-19.128 0-19.128zM483 221.878s4.58 9.868 0 19.33-7.416 13.304-5.9 19.345 5.9-38.675 5.9-38.675zM266.4 402.922c6.762 4.58 17.014 2.4 17.014 2.4s15.487-7.416 20.068-7.416 15.705-4.58 15.705-4.58l-.375-3.1c-4.52.873-14.798 2.945-15.984 3.96-1.527 1.3-20.286 7.634-20.286 7.634s-12.773-1.597-16.33-6.845c-2.35 2.426-3.35 5.54.188 7.935z" class="B"/><g class="B"><path d="M456.464 118.54l-.01-.7.02.817-.01-.106zm-44.606 18.55c1.252.577 2.83.783 3.588 1.895.74 1.083.34 2.514.527 3.793.334 2.287 3.413 4.012 5.36 2.642a5.55 5.55 0 0 0 1.548-2.032c1.832-3.407 4.385-7.327 8.4-7.395 1.7-.03 3.32.692 4.97 1.113s3.618.474 4.854-.652c.947-.863 1.396-2.345 2.666-2.648 1.293-.3 2.443.863 3.03 2.004s1.048 2.487 2.23 3.076c.525.262 1.138.337 1.652.618 2.448 1.337 1.216 6.134 3.984 6.65q.54-5.368 1.078-10.737a6.42 6.42 0 0 1 .762-2.89c.368-.574.9-1.027 1.32-1.575a4.81 4.81 0 0 0 .896-2.31 5.58 5.58 0 0 1-.896 4.054c-.4.547-.952 1-1.32 1.575a6.42 6.42 0 0 0-.762 2.89q-.54 5.368-1.078 10.737c-2.77-.516-1.536-5.313-3.984-6.65-.514-.28-1.127-.356-1.652-.618-1.18-.6-1.643-1.934-2.23-3.076s-1.737-2.313-3.03-2.004c-1.27.304-1.72 1.786-2.666 2.65-1.236 1.126-3.203 1.074-4.854.652s-3.262-1.142-4.97-1.113c-4.015.068-6.567 3.988-8.4 7.395a5.55 5.55 0 0 1-1.548 2.032c-1.95 1.37-5.027-.355-5.36-2.642-.187-1.28.212-2.7-.527-3.793-.758-1.112-2.336-1.318-3.588-1.895-2.915-1.344-3.987-4.786-3.744-7.918.212 2.582 1.365 5.077 3.744 6.173zm-4.078-18.314c.25.804.718 1.533.988 2.33a6.71 6.71 0 0 1 .248 2.868c-.044-.382-.127-.758-.248-1.123-.27-.798-.737-1.527-.988-2.33a4.82 4.82 0 0 1-.127-2.276 4.54 4.54 0 0 0 .127.531z"/><path d="M471.866 215.762c5.017-1.1 16.796-4.572 16.796-4.572l2.107-.423c-.03-7.325-.393-14.414-.528-16.818l-.052.01s-10.034 3.272-12.433 5.017-9.816 1.31-9.816 1.31-11.56.654-21.158 11.343 20.068 5.235 25.084 4.136z"/></g><path d="M520.893 196.296a2.91 2.91 0 0 1 .655 4.89c-2.657 2.2-6.538 4.833-10.24 5.205-6.18.622-21.05 3.604-22.528 3.902a2.72 2.72 0 0 0-.234.058c-1.226.36-11.954 3.502-16.68 4.538-5.017 1.1-34.682 6.553-25.084-4.136 5.384-6.182 12.824-10.205 20.945-11.325.128-.012.256-.015.384-.01 1.122.052 7.46.27 9.645-1.317a20.58 20.58 0 0 1 3.609-1.797 69.31 69.31 0 0 1 14.746-4.252l10.26-1.79a2.95 2.95 0 0 1 1.728.22z" class="I"/><path d="M499.35 167.783l4.8-.436s5.235 3.926 9.16 3.926 6.326 5.017 6.326 5.017 6.544 3.054 8.725 3.5 5.89 2.618 4.8 3.5.218 2.836 2.18 4.363 5.017 9.38 2.4 10.47-9.816 3.272-11.78 4.363a5.41 5.41 0 0 1-4.363 0s-11.556-15.05-17.448-12.215-13.963 2.836-13.963 2.836l-6.326-13.306z" class="F"/></svg>