<svg xmlns="http://www.w3.org/2000/svg" xmlns:xlink="http://www.w3.org/1999/xlink" width="1113.61" height="789.42"><style><![CDATA[.B{opacity:.1}.C{fill:#31b8a2}.D{fill:#f7bbc3}.E{opacity:.05}.F{fill:#ffd037}.G{fill:#d9d9ea}.H{stroke-miterlimit:10}]]></style><defs><linearGradient id="A" x1="578" y1="679" x2="578" y2="135" gradientUnits="userSpaceOnUse"><stop offset="0" stop-color="gray" stop-opacity=".25"/><stop offset=".54" stop-color="gray" stop-opacity=".12"/><stop offset="1" stop-color="gray" stop-opacity=".1"/></linearGradient><linearGradient id="B" x1="806" y1="467.16" x2="806" y2="337.16" xlink:href="#A"/><linearGradient id="C" x1="956.92" y1="706.81" x2="956.92" y2="214.37" xlink:href="#A"/><path id="D" d="M975.17 237.33l-47.6-17.4s-13.66 7.12-8.3 17.22l46.3 29.1z"/></defs><path d="M138.32 583.26c-4.54 9.2 2 19.15-.3 28.66-2.84 12-19.13 21.34-36.68 27.3s-37.15 9.58-54.26 16c-7.4 2.77-15.1 7.88-11.26 12.58 1.33 1.63 3.83 2.77 6.26 3.84 49.82 21.76 111.4 33.58 173 33.2 65.08-.4 128.82-14 193.85-12.44 83.88 2 165 29.06 247.93 21.26 35.2-3.3 67.92-12.75 102.2-18.64 50.42-8.67 103.45-9.54 155.66-12.4 39.2-2.14 84-7.7 102.75-28.55 13.54-15.08 7.86-35-11.22-47.77s-49.56-18.23-77.73-15.75c-15.14 1.33-30.2 4.78-45.32 3.4-8.8-.8-16.93-3.18-24.92-5.52-62-18.2-126.3-36.36-195.15-39-112.05-4.33-215.8 32.55-324.92 48.5-17 2.48-35.44 4.4-51.5.23-16.92-4.4-28-14.76-44.93-19.13-8-2.08-17-2.68-24.9-4.94-21.73-6.22-11.67-14.77-41.78-9-15.8 3-31.7 7.87-36.78 18.15z" class="B C"/><path d="M716.32 276.08S790.8 159 799.8 109s26-96 26-96" fill="none" stroke="#535461" stroke-width="2" class="H"/><g class="C"><path d="M842.8 113l-47 4s25 43 47-4z"/><path d="M760.8 87l37.22 29.8S749.8 136 760.8 87zm88-15l-42.32 5.67S843.8 108 848.8 72zm-70-15l27.94 19.6S772.8 91 778.8 57zm38.3-17.8s34.7-9.2 39.7-7.2 2 24-12 25-27.7-17.8-27.7-17.8zM793.8 13s22 21 23 26-18 17-28 0 5-26 5-26z"/></g><g class="F"><circle cx="834.8" cy="15" r="10"/><circle cx="816.8" cy="10" r="10"/></g><path d="M163.06 618.56s-31.82-83.52-6.8-148.75c10.5-27.38 12.36-57.34 4.34-85.55a227.74 227.74 0 0 0-15.08-38.79" fill="none" stroke="#535461" stroke-width="2" class="H"/><path d="M161.02 304.23c.8 10.48-15.8 42.33-15.8 42.33s-21.33-28.9-22.14-39.38a19.03 19.03 0 0 1 17.495-20.445 19.03 19.03 0 0 1 20.445 17.495zm35.86 55.6c-5 9.24-36.26 26.95-36.26 26.95s-2.2-35.85 2.82-45.1a19.03 19.03 0 0 1 25.795-7.655 19.03 19.03 0 0 1 7.655 25.795zm6.34 99.26c-9 5.44-44.9 5-44.9 5s16.2-32.06 25.2-37.5a19.03 19.03 0 0 1 26.13 6.42 19.03 19.03 0 0 1-6.42 26.13zm-12.12 76.2c-7.94 6.88-43.42 12.47-43.42 12.47s10.56-34.34 18.5-41.22a19.03 19.03 0 0 1 24.93 28.75zM120.95 391.9c8.08 6.72 43.67 11.56 43.67 11.56s-11.27-34.1-19.36-40.82c-8.08-6.716-20.074-5.6-26.8 2.47s-5.6 20.074 2.47 26.8zm-13.05 89.27c9.72 4 45.13-2 45.13-2s-21-29.17-30.68-33.16a19.03 19.03 0 0 0-24.825 10.375A19.03 19.03 0 0 0 107.9 481.21zm-.76 88.5c8.9 5.57 44.83 5.62 44.83 5.62s-15.74-32.3-24.64-37.83c-8.906-5.575-20.645-2.876-26.22 6.03s-2.876 20.645 6.03 26.22z" class="C"/><path d="M225.8 603.52s-24.14-2.9-31-8.75-36.2-14.72-38.77-6.55-40.07 38.18-12.77 40.85 63.9 1.4 71.54-2.38 11-23.17 11-23.17z" fill="#a8a8a8"/><path d="M143.07 626.12c27.3 2.66 63.87 1.4 71.55-2.37 5.85-2.88 9.14-14.8 10.38-20.33l.8.1s-3.28 19.38-11 23.17-44.24 5-71.55 2.37c-7.88-.77-10.36-3.82-9.84-8 .9 2.65 3.78 4.5 9.65 5.06z" opacity=".2"/><path d="M1047 461.75c-39.2 53.72-26.2 130.4-3.6 191.5 7.58 20.45 16.2 42.08 12.26 64.33-4.8 27.2-27.36 47.58-50.8 58.68-42.75 20.23-93.25 17-131.5-8.5-33-22-56.23-58.56-89.87-79.5-56.3-35.05-129.4-19.4-192.05 7.37-44.33 18.93-92.9 43.3-136.1 25.83-30.4-12.3-50.87-43.6-61.64-77.08-5.2-16.16-8.84-33.7-19.2-46.35-6.16-7.52-14.3-12.76-22.67-17.14-76.4-40-174.65-15-248.7-59.63-50-30.14-81.12-88.63-94.05-150.12s-9.73-126.4-4.58-190.2c3.66-45.34 9.45-93.8 36.7-129.42C70.04 13.83 118.36-1.15 161.57 4.76S243.5 34.7 277.4 63.3c42.4 35.76 81.4 80.63 134.1 94.17 35.9 9.24 74.06 2.7 111.4-.2 62.4-4.82 124.58.73 186.38 7 59.16 6 118.73 12.7 174.76 32.37 39.65 13.92 71.08 40.23 108.4 58.2 24.33 11.72 51.1 14.44 74 29.58 28.26 18.65 53.8 51.7 45.5 91.34-7.83 37.7-44.17 57.46-64.97 85.97z" class="B C"/><path d="M904.45,135H251.55A25.53,25.53,0,0,0,226,160.5V541a25.53,25.53,0,0,0,25.55,25.5H514.47v93.77H489.73a6.1,6.1,0,0,0-6.1,6.09V679H675.51V666.34a6.1,6.1,0,0,0-6.1-6.09H637.82V566.47H904.45A25.53,25.53,0,0,0,930,541V160.5A25.53,25.53,0,0,0,904.45,135Z" transform="translate(-43.2 -53.53)" fill="url(#A)"/><path fill="#474059" d="M472.88 495.18h121.27V612.2H472.88z"/><path d="M472.88 601.82h121.27v10.38H472.88z" class="B"/><g fill="#474059"><path d="M448.56 603H625.2a6 6 0 0 1 6 6v12.48a0 0 0 0 1 0 0H442.56a0 0 0 0 1 0 0V609a6 6 0 0 1 6-6z"/><rect x="189.27" y="85.47" width="692.15" height="425.1" rx="25.12"/></g><g fill="#fff"><path d="M203.84 135.12H865.4V482.4H203.84z"/><ellipse cx="534.62" cy="117.18" rx="5.83" ry="5.76"/></g><path d="M473.14 510.86h120.9v2.28h-120.9z" class="B"/><path d="M574.74 216.22a138 138 0 0 0 49.5 238.79l38.56-132.54zm91.06-31.75a137.43 137.43 0 0 0-88.06 31.75l88.06 106.25 72.92-117.17a137.34 137.34 0 0 0-72.92-20.83z" fill="#d6d6e3"/><path d="M665.8 322.47L627.24 455A138.08 138.08 0 0 0 803.8 324.9zm-403-67h50v30h-50z" fill="#8499f0"/><path fill="#fc6681" d="M262.8 307.47h50v30h-50z"/><path d="M262.8 359.47h50v30h-50z" class="C"/><path d="M339.8 264.47h94v12h-94zm0 52h94v12h-94zm0 52h94v12h-94zm-136-234h662v12h-662z" fill="#d6d6e3"/><circle cx="211.8" cy="140.47" r="3" fill="#fc6681"/><circle cx="219.8" cy="140.47" r="3" fill="#ffc74c"/><circle cx="227.8" cy="140.47" r="3" fill="#85d459"/><path d="M911.73 541.02s4.77 6.24-2.2 15.66-12.72 17.37-10.4 23.25c0 0 10.52-17.5 19.1-17.74s2.94-10.65-6.5-21.17z" class="C"/><path d="M911.73 541.02a7.73 7.73 0 0 1 1 2c8.36 9.82 12.8 19 4.78 19.2-7.48.2-16.46 13.6-18.6 17a7.25 7.25 0 0 0 .25.77s10.52-17.5 19.1-17.74 2.92-10.72-6.5-21.24z" class="B"/><g class="F"><path d="M920.6 548.97c0 2.2-.25 4-.55 4s-.55-1.78-.55-4 .3-1.16.6-1.16.5-1.04.5 1.16z"/><path d="M923.65 551.6c-1.93 1.05-3.6 1.7-3.75 1.42s1.3-1.34 3.23-2.4 1.17-.3 1.3 0 1.14-.08-.8.97z"/></g><path d="M886.53 541.02s-4.77 6.24 2.2 15.66 12.72 17.37 10.4 23.25c0 0-10.52-17.5-19.1-17.74s-2.93-10.65 6.5-21.17z" class="C"/><path d="M886.53 541.02a7.73 7.73 0 0 0-1 2c-8.36 9.82-12.8 19-4.78 19.2 7.48.2 16.46 13.6 18.6 17a7.25 7.25 0 0 1-.25.77s-10.52-17.5-19.1-17.74-2.9-10.72 6.5-21.24z" class="B"/><g class="F"><path d="M877.66 548.97c0 2.2.25 4 .55 4s.55-1.78.55-4-.3-1.16-.6-1.16-.5-1.04-.5 1.16z"/><path d="M874.62 551.6c1.93 1.05 3.6 1.7 3.75 1.42s-1.3-1.34-3.23-2.4-1.17-.3-1.3 0-1.14-.08.8.97z"/></g><path d="M931.8 581.35s-13.12-2.62-16.62-6.12-19.25-9.62-21-5.25-23.62 19.25-8.75 21.87 35 3.5 39.37 1.75 7-12.25 7-12.25z" fill="#a8a8a8"/><path d="M885.43 590.22c14.87 2.62 35 3.5 39.37 1.75 3.33-1.33 5.65-7.73 6.56-10.7l.44.1s-2.62 10.5-7 12.25-24.5.87-39.37-1.75c-4.3-.76-5.52-2.54-5.06-4.8.37 1.46 1.87 2.6 5.06 3.16z" opacity=".2"/><path d="M881 464.5c.025-51.828-26.727-99.992-70.74-127.36L731 464.5l150 2.64v-2.64z" transform="translate(-43.2 -53.53)" fill="url(#B)"/><path d="M831.8 406c.022-47.68-24.59-91.99-65.08-117.17L693.8 406l138 2.47V406z" class="C"/><path d="M1076 314.66q0-.58-.1-1.1-.1-.53-.2-1.22-.22-1.2-.5-2.32-.14-.56-.3-1.1a29.76 29.76 0 0 0-5.79-11.28l-.47-.54q-.47-.52-.92-1-.45-.48-.9-.86a25.54 25.54 0 0 0-.85-.75l-1.52-1.16s-.65-.44-.92-.6a5.11 5.11 0 0 0-2.16-.72l-4.76-.48-6.44-.64-23.26-9.18-.92.33a55.33 55.33 0 0 1-1.72-5.81 5.18 5.18 0 0 0 1.84-1.36 4.26 4.26 0 0 0 1.26-1.65c.58-1.37-.54-4.3-.3-6 .37-2.7 1.75-5.3 2.86-7.73 2.4-5.24 4.13-10.92 3.85-16.67s-2.86-11.6-7.64-14.8c-2.47-1.66-5.38-2.55-7.94-4.07-2-1.18-3.76-2.72-5.67-4.05a32.08 32.08 0 0 0-32-2.33c-4.83 2.42-8.95 6-13.5 8.94s-9.93 5.13-15.26 4.28a3.52 3.52 0 0 0-.16.67l-.45-.06c-.92 2.55 1.33 5.06 3.4 6.8 3.94 3.3 8.4 6.6 13.54 6.7 2 0 4.08-.38 5.9.45a5.25 5.25 0 0 1 1.1.7 26.31 26.31 0 0 0 7.96 25.95l-11.87-4.34s-.5.26-1.26.75l-16.5-11.15S920.4 245 911.2 264s39.8 9.15 39.8 9.15l10.48 5.85a9.86 9.86 0 0 0 1.15 6.38l28.57 17.95c-5.77 1.8-15.26 4.7-16.94 4.7-2.45 0-9.18 2.45-13.47 12.24s-19.6 57.54-33.05 65.5-49 61.2-49 61.2l.16.42q-.95.25-1.86.56c-8.88 2.94-14.86 9.13-18.45 14.15a6 6 0 0 0 4.14 9.46c14 1.8 21.67-4.76 25.35-9.72.24-.32.46-.64.67-.94a4.85 4.85 0 0 0 3.46.16L909.37 447s-13.37 13.4-5.55 25.63l-.6.85A196.33 196.33 0 0 0 874.48 537c0 0-7.35 5.5-8 27.54s-8 57.54-8 57.54-4.9 42.23-1.84 55.1a19.4 19.4 0 0 0 1 1.29 24.69 24.69 0 0 1-.76.88c-2.67 2.93-7.5 7-13.1 5.78-8.57-1.84-8.57 13.47 3.67 14.7 7.88.8 23.38 4.37 33.4 6.82a7.08 7.08 0 0 0 8.73-7.63c-.6-5.48-1.7-12.12-3.67-16.84-.12-.3-.25-.58-.38-.86.36-.34.72-.7 1.08-1.07 0 0 0-26.93 4.28-34.28 0 0 11.63-55.7 11-69.78-.48-11 30.17-53.9 43.5-72l-.1-.7L951 496l10.4 66.72s4.9 14.7 11 22.65c0 0 26.32 50.8 29.38 66.72 2.32 12.07 7.1 19.2 9.28 21.95a19.87 19.87 0 0 1-.8.78c-2.78 2.6-6.9 5.2-11.54 4.2-8.57-1.84-8.57 13.47 3.67 14.7 7.88.8 23.38 4.37 33.4 6.82a7.08 7.08 0 0 0 8.73-7.63c-.7-6.37-2.06-14.3-4.7-19q-.34-.6-.7-1.1a6.47 6.47 0 0 0 2.43-1.74s-15.9-38.56-15.9-49c0 0-6.73-39.8-29.38-54.48 0 0 2.14-49.76 8.6-77.45q.24-1 .5-2a179.34 179.34 0 0 0 17.86-3.78l.6-18.36 3.06 14.7 34.28-21.42-.88-9.78-1.08-10.2-1.16-9.48q-.16-1.23-.33-2.46l-1.47-9.9q-.3-1.84-.62-3.64l-.87-4.7q-.23-1.14-.46-2.25-.23-1.1-.47-2.18-.24-1.07-.5-2.1l-.25-1q-.25-1-.5-1.94a35.59 35.59 0 0 1-1.24-8q-.06-1.62 0-3.23.06-1.6.3-3.22.1-.8.26-1.6a36.87 36.87 0 0 1 1.74-6.25q.57-1.53 1.28-3l3.52-7.46q.92-2 1.86-4.05.94-2.05 1.88-4.2c6-13.5 11.84-28.53 13.4-38.4.17-1 .28-2 .35-2.94a20 20 0 0 0 .06-2.63z" transform="translate(-43.2 -53.53)" fill="url(#C)"/><path d="M930.53 223.47l-20.2-13.66s-32.06-11.87-41 6.53 38.6 8.9 38.6 8.9l20.2 11.28z" class="D"/><path d="M990.25 639.74c-9.74-2.37-24.76-5.85-32.4-6.6-11.87-1.2-11.87-16-3.56-14.25 4.5 1 8.5-1.56 11.2-4.08a26.22 26.22 0 0 0 2.36-2.52 6.86 6.86 0 0 1 3.84-2.35c4.45-1 13.72-2.44 19.42.63a8.38 8.38 0 0 1 3.07 3.37c2.56 4.54 3.9 12.22 4.56 18.4a6.87 6.87 0 0 1-8.48 7.41zm-150.2 5.94c-9.74-2.37-24.76-5.85-32.4-6.6-11.87-1.2-11.87-16-3.56-14.25 5.44 1.17 10.12-2.76 12.7-5.6a21.82 21.82 0 0 0 .85-1 6.86 6.86 0 0 1 3.84-2.35c4.45-1 13.72-2.44 19.42.63 1.67.9 3 2.88 4.07 5.43 1.92 4.58 3 11 3.56 16.34a6.87 6.87 0 0 1-8.48 7.41z" fill="#b77983"/><path d="M844.95 621.93c-14.18 14.6-26.33-.27-28.17-2.73a21.82 21.82 0 0 0 .85-1 6.86 6.86 0 0 1 3.84-2.35c4.45-1 13.72-2.44 19.42.63 1.66.92 3 2.9 4.06 5.45zm149.2-8c-6.14 4.2-26.82 3.16-26.82 3.16a20.34 20.34 0 0 1-1.86-2.3 26.22 26.22 0 0 0 2.36-2.52 6.86 6.86 0 0 1 3.84-2.35c4.45-1 13.72-2.44 19.42.63a8.38 8.38 0 0 1 3.06 3.38z" class="B"/><path d="M995.24 611.16c-4.16 5.34-27.9 4.16-27.9 4.16s-7.12-7.12-10.1-22.56-28.45-64.72-28.45-64.72c-5.94-7.72-10.7-22-10.7-22l-10.1-64.7s-48.73 64.14-48.14 77.8-10.7 67.68-10.7 67.68c-4.16 7.12-4.16 33.25-4.16 33.25-15.44 16-28.5-3-28.5-3-3-12.47 1.78-53.43 1.78-53.43s7.12-34.43 7.72-55.8 7.77-26.7 7.77-26.7a190.43 190.43 0 0 1 27.88-61.58c3.6-5.14 6-7.88 6-7.88l96.12 11.28a60.73 60.73 0 0 0-4.14 12.74c-6.25 26.86-8.33 75.13-8.33 75.13 22 14.25 28.5 52.84 28.5 52.84-.03 10.1 15.4 47.5 15.4 47.5z" fill="#605d82"/><path d="M902.67 449.27l-1.23-7.9s-48.64 64.1-48.1 77.78-10.7 67.68-10.7 67.68c-4.16 7.12-4.16 33.25-4.16 33.25a20.37 20.37 0 0 1-9.29 6c4.68 1.23 10.36.33 16.42-6 0 0 0-26.12 4.16-33.25 0 0 11.28-54 10.7-67.68-.47-10.67 29.26-52.3 42.2-69.87zm77.73 114.4s-6.53-38.6-28.5-52.84c0 0 2.08-48.26 8.33-75.13a60.73 60.73 0 0 1 4.14-12.74l-96.18-11.28-.63.76 89.7 10.52a60.73 60.73 0 0 0-4.14 12.74c-6.25 26.86-8.33 75.13-8.33 75.13 22 14.25 28.5 52.84 28.5 52.84 0 10.1 15.44 47.5 15.44 47.5-2.45 3.15-11.7 4-18.9 4.22 5.7.15 22.58.2 26-4.22-.03 0-15.43-37.4-15.43-47.5z" class="E"/><path d="M849.8 403.36a21.5 21.5 0 0 1-2.81 4.92c-3.57 4.8-11 11.17-24.6 9.43a5.84 5.84 0 0 1-4-9.18c3.5-4.86 9.3-10.87 17.9-13.72a32.25 32.25 0 0 1 7.58-1.54z" class="D"/><use xlink:href="#D" class="G"/><use xlink:href="#D" class="B"/><path d="M976.8 208.63s-.6 27.9 11.87 37.4-36.22 14.84-36.22 14.84 7.72-28.5 0-43.34 24.35-8.9 24.35-8.9z" class="D"/><path d="M963.8 422.96a60.73 60.73 0 0 0-4.14 12.74c-57.42 8.77-97.38-15.12-97.38-15.12-.22-.34-.43-.7-.62-1 3.6-5.14 6-7.88 6-7.88zm-114-19.6a21.5 21.5 0 0 1-2.81 4.92c-5.5-.9-9.9-11.42-10.7-13.47a32.25 32.25 0 0 1 7.58-1.54z" class="B"/><path d="M981.6 233.57l-21.37 7.72-8.9 11.87s-18.4 5.94-20.78 5.94-8.9 2.37-13.06 11.87-19 55.8-32.06 63.53-47.5 59.37-47.5 59.37 5.94 16 13.06 13.66l16.63-13.66s-13.06 13.06-5.34 24.94c0 0 48.68 29.1 115.77 11.28l.6-17.8 3 14.25 33.18-20.8s-3-38.32-8.34-57.83a35.24 35.24 0 0 1 2.29-24.57c8.62-18 21.92-48 20.3-58.9-1.9-12.9-9.2-18.5-12-20.2a5 5 0 0 0-2.09-.69l-10.8-1.08z" class="G"/><path d="M945.08 293.23s-11.88 55.24-24.94 64.12-48.1 37.4-49.28 42.15" class="E"/><path d="M939.73 291.47s-11.87 55.2-24.93 64.1-48.1 37.4-49.28 42.15" class="G"/><path d="M951 252.86s41-13.66 52.84-10.1" class="B"/><g class="E"><path d="M1008.8 323.35c8.62-18 21.92-48 20.3-58.9-1.9-12.9-9.2-18.5-12-20.2a5 5 0 0 0-2.09-.69l-4.62-.46a4.88 4.88 0 0 1 1.37.56c2.78 1.7 10.07 7.3 12 20.2 1.62 10.94-11.68 40.94-20.3 58.9a35.24 35.24 0 0 0-2.29 24.57c5.36 19.5 8.34 57.83 8.34 57.83l-28.63 17.9.73 3.48 33.2-20.8s-3-38.32-8.34-57.83a35.24 35.24 0 0 1 2.34-24.56zm-10-81.47l5.14.52-22.36-8.83-2 .72 19.22 7.6z"/><path d="M939.73 349.04s18.4-10.1 24.34-7.72 27.9-.6 27.9-.6M974.8 216.05c-.68-6 2.08-5 2.08-5s-32.08-5.98-24.38 8.86a34.2 34.2 0 0 1 3.3 13.06h.3c8.9 0 14.1-9.96 18.7-16.92z"/></g><circle cx="956.06" cy="205.07" r="25.53" class="D"/><path d="M983.92 212.62c2.32-5.08 4-10.6 3.73-16.17s-2.78-11.24-7.4-14.36c-2.4-1.6-5.22-2.48-7.7-3.95-1.94-1.15-3.65-2.64-5.5-3.93a31.12 31.12 0 0 0-31.08-2.26c-4.7 2.35-8.68 5.85-13.1 8.67s-9.63 5-14.8 4.15c-.9 2.47 1.3 4.9 3.3 6.6 3.82 3.2 8.15 6.4 13.13 6.5 1.93 0 4-.37 5.7.44a8.2 8.2 0 0 1 2.92 2.71 53.06 53.06 0 0 1 6.05 10.27c.67 1.5 1.34 3.1 2.7 4 2.3 1.47 5.27.25 8 .14 4.23-.16 8 2.5 11.16 5.34s6.1 6.1 10.06 7.6c3 1.12 8.85 1.08 10.35-2.44.57-1.33-.52-4.18-.3-5.8.35-2.67 1.65-5.15 2.77-7.52z" class="B"/><path d="M984.5 212.03c2.32-5.08 4-10.6 3.73-16.17s-2.78-11.24-7.4-14.36c-2.4-1.6-5.22-2.48-7.7-3.95-1.94-1.15-3.65-2.64-5.5-3.93a31.12 31.12 0 0 0-31.08-2.26c-4.7 2.35-8.68 5.85-13.1 8.67s-9.63 5-14.8 4.15c-.9 2.47 1.3 4.9 3.3 6.6 3.82 3.2 8.15 6.4 13.13 6.5 1.93 0 4-.37 5.7.44a8.2 8.2 0 0 1 2.92 2.71 53.06 53.06 0 0 1 6.09 10.26c.67 1.5 1.34 3.1 2.7 4 2.3 1.47 5.27.25 8 .14 4.23-.16 8 2.5 11.16 5.34s6.1 6.1 10.06 7.6c3 1.12 8.85 1.08 10.35-2.44.57-1.33-.52-4.18-.3-5.8.3-2.63 1.65-5.15 2.73-7.5z" fill="#a1616a"/></svg>